<mxfile host="65bd71144e">
    <diagram id="rNmfFgsq5SdKwLncIzJh" name="Page-1">
        <mxGraphModel dx="1607" dy="1559" grid="1" gridSize="10" guides="1" tooltips="1" connect="1" arrows="1" fold="1" page="1" pageScale="1" pageWidth="850" pageHeight="1100" math="0" shadow="0">
            <root>
                <mxCell id="0"/>
                <mxCell id="1" parent="0"/>
                <mxCell id="45" value="" style="group" vertex="1" connectable="0" parent="1">
                    <mxGeometry x="-830" y="-600" width="910" height="274.41" as="geometry"/>
                </mxCell>
                <mxCell id="44" value="" style="rounded=0;whiteSpace=wrap;html=1;labelBackgroundColor=#f2f2f2;strokeColor=#666666;strokeWidth=0;fontColor=#333333;fillColor=#f5f5f5;" vertex="1" parent="45">
                    <mxGeometry width="910" height="274.41" as="geometry"/>
                </mxCell>
                <mxCell id="30" value="&lt;img alt=&quot;&quot; src=&quot;data:image/png;base64,iVBORw0KGgoAAAANSUhEUgAAAPoAAAELCAYAAADwVZs1AAAAAXNSR0IArs4c6QAAAARnQU1BAACxjwv8YQUAAAAJcEhZcwAAFiUAABYlAUlSJPAAADscSURBVHhe7Z0FYBXHFoYPRPCgwd2LFncvDylOgQJFirtLcadYcQpFSnEKxd0pFHd3d3eSkMC++U92Q+Te5CZZUuier10yq7O7d/+Zc0YjaQoSBOE/TWT9ryAI/2FE6IJgAUTogmABROiCYAFE6IJgAUTogmABROiCYAFE6IJgAUTogmABROiCYAFE6IJgAUTogmABROiCYAFE6IJgAUTogmABROiCYAFE6IJgAUTogmABROiCYAFE6IJgAewODjls2DA9JAjCl0KWLFmoevXq+tpH7Ao9Q4YMdOnSJX1NEIQvgTp16tCff/6pr31ETHdBsAAidEGwACJ0QbAAInRBsAAidOGLpE2bNjRz5kwOf/jwgX799VfKlSsXL40aNSJPT0/eZ/Du3Ttq1qwZ71++fLm+lah37968rXHjxnwMGDduHJ0+fZrDCxYsoPnz59PQoUP9ro9l5MiRtGzZMpo2bRrHf/LkSWrXrh29ePHCLx4sVatWpUePHvG11q5dS7lz5/ZbB8+ePaPKlStT8eLF+Ro4xn88rVu39ruvN2/eUPPmzXn7+vXreZujhFnoDx4+pllzFlHjFp2paJnqVEwtzdp0p41bdqob86Zbt+9S34EjadGSVWQU7Ht4etGY8dN4+52793kbQLhXv59p+8495O3tQ1u276ImLbtS4VJVqUipatS6Qy+1bbd+tGB1bt68SXv27KHJkyezsMC9e/eoY8eOdOzYMUqePDnt2LGDtxucO3eO4saNS6tXr+bzX716RV27dqU0adLwOUgcUGKN6929e5fevn3L50GUEGPfvn05gbh9+zatWrWKevbsycfev+/7HUOEV65cIR8fHz5n4cKFfF0c6+7uzsds2LCBjztx4gSvg02bNlGpUqVo4sSJdPjwYapQoQIdPXqUEidOTDNmzKCpU6eSq6srH4tnLFKkCK1bt4769OnD644SZqFv3vY3TZsxn5InS0Jd2jenOrWq0qnT56h7r6F0+OgJvrk9+w7TvIXL1Et9zedcvnyNFi9dTX/+tYZOqmMNVqzeQMtWrqcYMaLTvoNHqGef4XRXPUTn9s2oT6+OFCe2G834fYF+tGB1INbatWtT/PjxbVYBp0+fnsXsn9evX9OcOXM450fOC/HOnTuXypQpw/vz5ctH79+/D5V4QsPz58/ZypgyZQoL3gDbIVqI/8cffyQnJyd9T1DwXLA87ty5wxYHLAlHCbPQK5YrTTs2LqGhA3pQjWoVqV2rxjRyaB96r1K0Q0dOkHuCeJQmdUp6+vQZPXz0hHP1s+cvUeTIkSl69Gh04eIVvg5y8GUr1lO6tKkobZpUtPPvvSo19aDpU8ZQrRqVqeL/StHPQ3rRojlT+HjB2iAnhildvnx5atiwIe3cuVPf42saDx8+nIVUrlw5fasvEHK3bt3ot99+o3r16vF1kFBEiRKF9zs7O5Obm1sQkz8ktm/fzrk9rmuAa4wfP54FDNMfCQgsjHjx4lGhQoU4biOeunXrshsCAeM63t7evN0eSIhgvg8YMIASJUqkbw2ZMAs9fry4FDNmDJWqaPwgSF1SJE9CLq4u9OTJMxZ0tqyZlKnylq7fvMUmzakz5yhj+jRUqEAeunjpKl/n6rUbdP/BI8r1dXaKFzcOL7jW73MX00tlCRhmf3ApnWAd4MfCDC9atCi1atWKVq5cSR4eHryvUqVK7HMvWbKEUqdOTZ07d1aZSnTasmULfz9dunShCxcusEkNocHEh5kOkMPfunWLxZ8sWTL+pgG+xUiRInHYFqVLl2b/vWXLlvoWoqhRo1KnTp24dWn9+vXZXJ8wYQJNmjSJEiRIQLNnz/bzsXF/o0ePpjNnznCigRzeP7BE4L9nz56dzp8/zwlDypQpOVFA4uQoYRa6h3pRy1etpw5d+lLtH1pRc+Wfj5s0k/1zTf0HihTKR+9UCnX+/GXy8npHZ85eZPGXLVOczl24zCI+dea8ShQiUYG8X6sfIzJ9V/1bypsnJy1Wvn25SvWUGT9MmfYb1QO/4WsK1mbr1q00ZswYFjf86CRJktChQ4f0vQFBoRqOKVu2LB05coS+++476tGjB9WqVYu++uorGjt2LB+DHBU+d69evShp0qSc6xrihb+MwrLQgHsbPHgwXxfLgQMHWLAwubEPFslff/3FYfjwsDDwTA0aNOByBP/EjBmTdu3aRadOneIEbv/+/awbXPfBgwf6USETpiawOGXir7No6vS5VDB/HipVsgiL9dq1m8oHX0U1lViH9O/OIi9VrhZly5KJenVvR/UataMBfTtTyhTJqVGzjrRk/m80f/FyWrFqgwpPVeZ7ar7+s2cvaPO2nbR1+x46rayAp2q9TMmiNPrnvuzHC4JgG1ObwL5X5szmbbspoXsC6terEzWsV5N++L4G1a1djVxcXPzMbVcVrlenOh0/eZZu3b7HZlCmjOm5AC9RQndasnyNSkyu8nWSJ0/K54C4cWNT7ZpVaPK4obRs8UwqWjg/7dqzn84pH18QhNATJqFryi/38vKiyMrvcVU+OXwYH5/3dODQUTbRX7x4pR+pfBiV26Me8Pc5i5XflJx98FjKt0+dKoXKyTfSlas3qH7dGhTF1VUlEMQFd289PPmaUaK4UpLECSlVymSceCCBEQQh9IRJ6PCl0ysz+/79hzR42Dj6VZnwLdv1pFl/LKaoUaPQvgOH2YcHiVXODbHuO3CEvsqckUUOMmZIS0+ePCUvlQhUr+xbQvrhw3saOmIC1W/cjob8PJ6m/PYHdezWn330FCmSUeZM6fk4QRBCR5iEjhL1rp1aUvn/laQHDx/Rps072NweM6I/m/I1qlZUR/mWVKJkvqoScplSRZWfXcSvBLNwwTxUolhBZdpXo2jRovE2XLdSxW9UwuBOBw8fp5WrN9H1G7eoYvnSNG3izxTbLRYfJwhC6AhXf3TUgSNHhnhhwrs4O7Mfjkv6rw7zrX5T25ydKLIudByDKjeI2/+xxnYvb2/6oNwB7ENdp7M6VxCE4Pkk/dFdXJwpZozoFCN6NBY5CCxcgHUca4gcIHFAwV3gY43tMaNHJze3mBQd7Rne3iTvp2fo/Zu7KiXw8T1QEASHCbXQP3g+o/dvHyDr1bd8GjTtPb05PZMer6hOT9c2oWfr29DT1Q3o9alpaqdvYwZBEBwj1ELXPnjR6+OT6OWhEfTu4RG17tuzxmw+eL0gp+hJKFb+zuRW5CeKmb+9yu5d6YPHMzbvBUFwnFAL3Sl6YnIr0A8herHtJ3q+vT15PzlHmvcbU3N5pyhxyDVpESLnmOTz5jZFTVWWIkeJRc7xMinzPlwehyBYjjApJpJTFHLL143civUlzestPVvXkp5tbEMvDwwjrzs7yeflVZXTh96X1nzekvezc+RxdRW92NVHmezN6M3hseQcK63KyZ+SFsmLXBPlUzcgQheE0BDuUWDfezwhz6uryfPCenr/8p66ovo/Wgxyjp2MIsdMQs5xM6lwWpUbx1bJCgre9AI57QOK4+m951PyeX5RLZfp/es79OHFfZV4eFHk6PEpSvpSFCNrQ3VuXHp15Bd1TmSKmaeT5OiCYAd7pe7mDPesRPvB6xl53dpNHhcWk48SK73Tu9sZJe2RI/sK1BCpOkeD2NHazbgFlMLHik9R01emqKnLKzfBXR3vxP76qyOjKFburhQ5ajzfYwVBCMKnFbo/NB8PNr+9H58mnydX6IPK5T94PKYP716pfe98Ra3EH8nJhSK5xqTI0RKQk1ti5XunJecEWcklbhaK7BqoYQwSBeUKRHLyHWlDEATbRJjQP6IuqwuU1ILqMt+cGwvseyV2lVtTZGeVyTurdeT0H+vZBUEIPZ+kwUzwQMxOXHAXySWGyqXd2E+PHCWO71+1ju3Yj+NE5ILw6ZBSLUGwACJ0QbAAInRBsAAidEGwACJ0QbAAInRBsAAidEGwACJ0QbAAInRBsAAidEGwACJ0QbAAInRBsAAidEGwACJ0QbAAInRBsAAidEGwACJ0QbAAInRBsAAidEGwACJ0QbAAInRBsAAidEGwACJ0QbAApgq9e/fulDdvXjp48CC9f/+eGjZsSKVLl6br16/T3bt3qXz58vT999+Th4cHHT9+nI/t2LEjn7tp0yZeHz58OK/PnTuX12fOnMnrY8aM4fU1a9bwuv+4Pnz4QI0aNaJSpUpxXPfu3XMormHDhvH6vHnzbMa1evVqXjfiOnDggMNxdejQgc/dvHmzzbhmzJjB64Hj6tGjh0NxvX37lk6cOGEzrqFDh/J6eOK6f/8+VahQgScE8B9Xp06d+NyNGzdSvnz5+PfCHCD4vQoWLMhxgl9++cVmXPv37+fjjbiuXbtmN6727dvzuYGfa/78+bxuPFfguHr27BkgrsaNG1PJkiVtxnXy5MkAcW3ZssVmXNOnT+d1I65Vq1bxekhxVaxYkWrXrk1v3rwJdVwLFy7kv2bwCWdqEQQhPKRKlYpu3LihrzlGhMzUsm7dOj0kCEJ4adGihR4KP6YKffHixXpIEITw0qdPHz0UfkwVes2aNfWQIAjhBWUqZmGq0KtVq6aHBEEIL5MmTdJD4cdUoaPE9fLly/Ttt9/Sq1eveBtKcMuUKUO3bt3i9YjA29ubWrduTSlTpqR06dLRwIEDuUQ0OFDSiVLz0IB4pkyZQvv27aM8efLQy5cvefudO3e4ZPf58+e8/qlAPHjXnp6evI6Sc5SGZ8+enUtvDx06FOJz+we/EXIRXCc4UCqOknrh0zJgwAA9FH5MFTqqQUDy5Mnpn3/+4fDRo0cpRYoUHH748CE1b96c+vXrR15eXiwsVA2hSuLJkyd08+ZNrnbp1asXiwgfXvXq1alp06b04MEDPh5VXSNHjqRly5bxB7lixQqqUaMG7d69m+Pwz9atW+nKlSuUKFEievHiBS1dupQGDRrEVWD4UFFCuWTJkgBi+Pvvv7lQ8fbt2xw34nr37h398ccf1LlzZzp//jwfh3NwXKFChSh69Oj09ddf09mzZ3kfqnnSpEnD4TNnzvB12rRpQ48fP+br4B5wz6jVwHPCF8MxuF+AhAPvZM6cOXwMqmZQJdOuXTtOQPEe+vbtG8S0w/WXL1/OVT3btm2jUaNGcRUP3iPe6/jx48nHx4ffVbdu3TiRgmgB3sOjR48oceLEvL5o0SK+p3PnzvG6cc9IXL766is+D9VTwqejSZMmeij8mCp0iBikTp2a6xmRo50+fZqFDmHj48RHnT59ehYoxIq6dtQj4gNCvSKE9d1339HTp085scDHXrduXf4QsRQtWpSXvXv3shghvL/++os2bNgQ5MNDjrZr1y5OEGLHjs0Ch3uB+5s1axbn4hcvXuTrAHzU+Ni/+eYbmjhxIgvBzc2N79MQbObMmflYCBRtA5B7gmTJkrHw8cwXLlzgqhEkEBAc6keRIOzcuZOvkzt3burduzcnjDi2bNmyXCeMdQgT94X3sH37dnr27BnfKxI73DsSERyHhAXidXZ25vhB3LhxeUECACFOmzaNYsaMSS1btuRtkSJF4ncCK6tcuXJUpUoVrorBPePenZycOLE6fPgwx4u6cRyP+HHPY8eO5bpdV1dXTjyNRE/4NCAxNgtThV68eHH+mzBhQnJ3d+fGLLFixaJo0aKxeXnkyBEWCz465LT42PBBI4GAMAoUKED169en2bNnU/z48dkyQIMb5GbIiSBEfHDZsmWjBAkScOKAjzl//vzcCAY5mn+Q08aIEYPDsBbixYvHgoRlgfvCvly5cvE6BIeEJWnSpCxifOyVKlViP+nq1aucWOBcAxwDIbu4uPA6PnwcA0shZ86cLAbsQw5ZokQJGjx4MB8HsmTJwm4F7gHPPXnyZBY7ngeWC9wNXA/b8Nx4b0gQu3TpwhYSnhPvwbiGAeJDAxYklACJCephkSjiXUOweA94L3gWvEPEh9+pSJEifC1YKogP7Siwjt8D7wYNQ1DYikYfAAkKEmPh0wEL1CxMFfqECRP4b+TIkVkk8NnRkgs5CXIetIRCLoXco1atWvyR4eODSQlzFTkKcmbkNPi49uzZw2YmEgbsw8eJc5DrwnzFh9i/f3/OdZALGmanQdasWdl3xgeNc3BfuI84ceLwfogVQsCHnylTJs41ISS06kO5AuJGDgrh4FzcgwGuEyVKFD9/FsKGpYHcGxYBeP36NeesSEAgFAP/14HFgYRu/fr1lCRJEr43uBkw15Hz4t3BAkKLQFgHqFvFcyJxQpkAEhsDPMu4ceP4WdBqDc+HpWrVqhwPLBMkxsazIAHGb7Jy5UpuwQUQH+4DIsa1jx07xgkkfkv8HnCdAN4/zhc+HcjEzMJUoSMXNMDHhpwdOQOAmOBz4MNCk0Ajt8WHByEhh4LZCv8PD4iPG+enTZuWTW7kYvCpYc4gcYDIEAe2IxfGh2zkrgaFCxdmUSC3h6lrAGsDQoAZjvONe4QAcB9wEfDhw8SH2WskDP5BXBA3zHcDFIDhWCPnhxAgHOTwEBzKIQIXjiExQvNQPBfEA1HBysB7QRxIUJAQ4NmRgCBOuAEoYET5Bo43QA6Pc/FcOXLk4NwYf9u2bcv3BosA780/SIiNRNQA25Agw6JCooNmr0OGDOH3gTICJISwyGCZCJ8OFOiahalNYOGPw6z+FOA2kbvAj4e/D+FWrlyZhfRvgVwVZRHwlSFAM0A5A9rcI0eHn4wcFAnT5wQsDVhccAeETwcS6gULFuhrjmGvCaypQocZi1xREITwg5obdI4JDRHS1h1VMIIgmANqpszCVKHDxxYEwRyMthhmYKrQzWzJIwhWB1XRZmGq0M0qkBIEgfyaNpuB+OiC8Jny2froaG4pCII5oHrVLMRHF4TPlM/WR0c7akEQzMHMloemCh3NJAVBMAf0TTALU4WOdtWCIJjDjh079FD4MVXoRs8mQRDCDwYfMQtThY6RTQRBMAd02jILU4WOEVnMxNPrHd29/5QuXb1Dp85dp5Nnr9GZCzfo6o179OjJC3r/PvixzQThSwYDkpiFqb3XjCGPwsuNWw9p/rLt9M++0/T0OcZI8yKvdz7cVdXJKTJFcXWhmDGiUvx4salG5SJUu2oJihYlYF90QfjSwbBd9erV09ccI0K6qYYHdHE9fuYazV2yldZtOkBRo7pShrTJKHOGFJQqRUJKmCAOuSoxv37jSffuP6Fr1+/TuUu3VKLwgJydnahZg/JUq3IxSpYk/r/aR10QzMLMKZmQS9okffr0eshx1q1bp4dCx7t33lr/kfO0zAWbaunzNdGGjlukPXz8XPPwfKcfERRltmuv33hoZy7e1Oq1GqGlzdNIy126rbZxxxH9CEH4shkyZIgecpzatWvroYCYKvQffvhBDznOtZsPtMbtxiiB/6h16jNNu3rzvr7HcT580LTt/5zQqjcerKXL21gbMXGJ9uatp75XEKyDPaGbWhiHcb9Dg5eXN7XoMp72HDhDowc1p3FDW1KaFIn0vY4DS71UkRy0eHovKlcmH039fQ0NG7dYuQM2vRJB+CLAFM1mYarQQ9M29/HTl/Rd06F0/+EzmjSqLVUpX1DfY5v3yodHwVxwuLo403iVWLRqUpkWL99Jo6cslZJ54YsFcwuYhalCx1DHjjLtj3V05twNGtijAZUrmYci2yhAu3nnEQscPHr8groPnsXh4HBxdqKurWpQ6RK5aNb8TXTs9BV9jyB8WXy2UzJhWGVHOHT8Ii1Yup3q1ixFlf6XX98alLWbD9DUP9ZzGIJ/8NCxucxcXJxozMBmXGLfqttEevDIvO5+Pj7v6dmL1/RQJTwvX3v4JURh4Z23D1spaBPw1sOLPtiuALHJe+WWKNdLX7MPjsGx9q5t7A9psecGhXR9e+B4nOfIWcax9sBvYNxncIut92XcvyO373fPNo71H48jiyNupZlTMplavYax1Y3ZWuzh4fmOqjQYpPzzd/T3qlEBqsJwJ6fOXaOkieJRgvixuaFM9YaD6Z/1Y+nly7dUv80o2r16tH50yOzad5qadhxL7ZpXpY5qCSv4Uc5euElrtuyn6Srh8f/KEsR3o+7talPxQtkoibrvkMC5p5Qls2zdPzT/z60BXIuvMqWiTi2rUdECWSlG9Kj61qBcuHKbaqj3UqFsPpWg+U6DZY9tu49T0w5jqU3TytSjXS1960eOnLpCNRuGPGBIiuQJafeaoNP4Xrh8m8rX7k2N6v6PBnb/Qd8aMv1+nkOLlHs1e1I3KlYwq741KHhfHXpPpe27T9DKuQMoQ9qk+h5fvN55U9YiLTgBDoneXepSiwYBx0pfvm4vdek7jYb1/ZHqq4wnOIaP/5Omz1lHv/3SgcqVzqtv9SV9vh8dugeDqt8WoQnKzQwOjPUfeH69kIiQUWBDEjk4cuISXb9xj+rVKGWzvvvO/afUvMsEri9PmyoJubvHpW27jqlU8D15vPXSj3KMgnkzU7o0SWn1hn36lrAxVbkZtZsOVSJfR7Fjx6TG9dRH3bMBlf8mP7167Uk9B82k2s2G0/XbD/UzbANRN+88geq2GE5zFm6mJEkSKAFWoT5d61FhJe7LKmFr3W0SVVMJIdoIhMSKtXto8uy1+pptHG1TgHYLceLEsru4xYquH2kyjt1esOAZsdi6b/9L1GAaVY0Yv5iOqUQvWIK5V1vxoX0HcHOLEWRfjOgBJ9KwhZlTMiHFtElYqtcmTJigh+wzaPR8LU3uRtrte4/1LUH5Y/EWrUyNn7Qr1+9ph49f0mo1HcbhLEWa60c4zt/7TmmpczXUlLugb3Ecb28fbeSkpVqqrxtoFb/vq23cfljf8xEvL29tzK/LtKxFW2iZCzXXLly5o+8JyoCR8/haFer01c5cuKlv/Yi3j4/WY9AsLX3eH7XS1Xpqd+y8o/OXb2lZCjfna6H9wMGjF/Q9QVE5Oh83ctISfUtADp+8zPvHzVihbwkd5y/dUu+3gTZg1Dx9i2P0Hf4HV4Xu2n9a32KbD8qcavfTFPXbt9Au2ni3nl7vuGr261Jt9S2hY9naPfz8WPKUaafdumv/uxw2fjEft3HbIX1L8DRoO5qPv3P/ib4ldISlXUqEVK9hDrSQ2Lj9CJUqlpOSJo6vb/HlvvKjDT+v/nfKdy9fkBq0GU3ZMqdS/vBzNlc9Pb15f2iAGZw8mTtNnLFK3+I4aFc/a/4Gyp4lDc2f1pPKlcqj7/mIq6szdW1dgwsVMVfZ2F//0vcEZNrc9TRn8WZKmDAe/TmzN2XJ6DuVtH+cnZxoeJ/GNEQtV67fpTrNfw7WHEydKjFbCU2Uae4jtQvhImnSBPT4yQvqrMz4zwVjPjwzMFXo/icStAUKsO4/eEq1qhYPYAWpBIf+3nOSGrf/hXoMnkUrlN/UvH45Kl86DxWq0Jnix41FPQaixD3kAozAoDQ/V/Z0dOzEZe4kExqG/LKI6/q7t69FcZXJHhzfKn85jXI1/t57issh/PPi1Rv6U/mjCeLFprULBlGsmPYnJ0Rb/u+rFacqFQrR7TuPaKtyW+xRolB26tL2O+XmeCg/uQ9XWQpho2XDilSxbH46dPQC9Ro6m33/fxtMyWQWpgodEwYGhzLT+G9WlUv7B/5VnWolaM6krvRDrTL088QllLNEay7dLpDvKzpy/BK9UmIJK6lTJKK3Hp509/4TfUvIPHn2SsV7kfLkykjFlFUQEtGiRqEJw1tT++bV6Pa9R/pWX85fvEXXbz6gAnkzk3t8N31r8HxXpRgngDtVAmgPvLcOzarQ99VLsn8/c4FjtR5CUNBRavTAZmy9/bnib9q9/4y+598D012bhalCD2m45wuXb1GMGFEppp0SZXy4Ob5KTfvWj6Upo9qRU+RItHXHEX1v2Ikfz02JhlTC4XhisXXXcRbad5WL8n05QtZMKanNj99ShjQfZyYFRs87lKo7eq2vMvia9qfPh9yp4adOdShXzvT02+y1NF25CKGt6vovgHnkj566YneBGxbSW0FNx4j+Tfl76dDrV7+M6d9i+fLleij8mCr0e/fu6SHbvPHwoihRXJSAA0Z7/vJtrnL7plZvKlG1BxWt3I16KhN+046jPGljZCV4LPBHM+RvQpkLNaNsxVpSzpJtKH+5jnxOmZq9qbK6Rp0WI+hdIL/WVaXWMPvfvHV8QPw79x/z3wTqRw8vT575mtS2/HJ7xIrpW8qN2oeQiB0rOs34pRO5u8ehcVNX0KFjF/U9jjNzzkYqVLGL3QV1/p8zr169pRoNB9ldWnSewD0kQwKJNSyzD+pb6zd8Dj1Ufvu/Rbp06fRQ+DFV6CG15HF1dqb3Ph+C5DhpUyaiCcNa0ST1gif+3JqmjGhLU0a2U0tbmjGuI00f15kG9mzIx3qrD85T+cCuLi5U77tSNFkdi3Mm/dxKXaMljR/SglycfKs1DDCfN+pG0ETWUeLFicV/34SySs8Wsd1i8N8btwOa9MHh4ekbbxRXx+4Z9flo/uutcraOvafStZuhmwcvShRXrkKzt3wqzOqPEF3lxoN7NbK7dG1T02brS1sUyJ2JOrWuTjdvP6DW3ScFKXOJKD7b4Z4DT7IfmJTJ3enV67dcwOUf5LhplNhhruZUPlJ+5RcXyZ+FihXMRsULZadvin9NhZSvboCfK7m61tpNB2j0lL/onTKNkyVJoBKMxNxoJfDv+UKZ7NhmCM4RihXIxlbEll1H2ex2hHsPntLx01eCWA7Rlf8Ok/3oiUvsQjjC5Wu+1lHGdAHdgOAonC8LjRzQjJ4+fUk9B80KlQXT4PvStOnPoXaX0CSSjoD3AQvNS0/Q7IGEAEJzdXHiFo/2QELVsHYZu0uNSkU4TkdAgSgK5+pUL0VHj1+iEROX6HsiFsyVbxamCn3gwIF6yDaFlVjx416/9UDf4jj4ifBD4UfIovz4N689aNaELtT8h/I0bc46qt1sGP2+aLNNExNmOFyAZIGq9IIjbapElDSpO23aepiuOpA7onqrTc8pVFe5DoGrutKlScIJ0dETl+mlSugcYeP2Q/y8xQuFbmTdyuUKUMX/FaDDxy/ST0Nn8/v+HEmQIDYnoCG5JmgafPP2Q4oZI1qwrQXNBu++R7vvKGWKRLRo2Q6au2S7vifiWLlypR4KP6YKPaQpmTKmTU6xY8egzTuP6lscBy8eddblyuSl6t8WpkIqx+/c7zfKonyqWeM6sZn//OUbOn/ptn7GR1CglSFdcj+/1xEQX9/O3/PfQaMW8AcXHP8cOE1nz1+nHFnTsM/sH/f4sel/pXLT7buPaNSkJcFeCx//7gNnuPddYmWdlCySXd/jGMh5xwxqRgVV7r5mwz6as2SrvufzolYV31aUY6ctp5fKv7bHvsPn6NqN+8qySR5iFafZxIsbi5bM7E2J3OOob2AeJ54RyfPnjvXtcIQI9dFhCufJmZEWLt3mUCGTf3Cus/Lxm9QtRxOmraTeHetQkQJZqfuAmWzepU+dlLq0rE45sqTWz/DlphIXesnVqV5ciVbf6CCli35N+XJnpn/2n6JG7X+x2012/9Hz1Lnvb+yStGpcSd8akN4q0ShWODt35uk6YLrdnHblxv3UqssEFYpE837tyYlEaEHDm5H9mlC8eLFoz75/t+TYHkkSxqVWP1bitgLwg20lfvuOnKdOvafx79u1bU2/JqURCUQ+pHdjLudBW4yIxEwf3VTH69atW9wZJjiqVShEO3Yfp+3/nKAqysx0FOSsMWNG45ZyKZMnpJ17T1HvDrVp8u9rqHWPSTSyf1OKE8gHxwcyZsoyiqOsiO+rldC3Og4siOljO1DvYX/QWiXACnX6cSOezBlTKr/bVVkQr2n/4Qv8PNGjR6FRA5vxABi2YPGpe+w9bDZtVO5AweOdqLIysZFTwR1Bqyw0tjl07AK370cHkfRpEutnh54Uydxp2piO1KrrBHr6LPh+/OEF5Q4HjlygASPncRWWrQQ1k3pO1PcjwTZo17QKV3vtVs9dvfFgqlA6r3Jx3Mnb25uOn75KG7YdUr/hBxrSqyFlUe88ON6+9aQBKtcNjnKl8rL7GFpKFMpGA39qSEPHLAhVx5XwkjlzZj0UfkzN0QcPHqyH7IOOJrHdotOyNbv1LY7hFNmJYsWKwZ0vmjUsT2s37Wcht2tSmb5VgrFV33zx6h3auvMIlSmeixtEhAXU+U8Y2oqmjG7PH/DcP7dS7yG/c8n2wJHzaZPypTNmSEF/ze5HtasG36kHvfL+mNiVxqrroTfe7IWbqZe6Vo+BM5RJv5QOKsvgW5X4bV8+ghOU4EDCF6B5oQ1QqNmjQx0+1t6h2O67P4SLBQPOP3/xJs1bso3mq2Xu4q1BFvSiC1yoiZF8507uRi1+/JYH+5zw20r1LqZTH5WwLl21S30nMWnh9F5UL4ReZUg83r3zthmv/+WsSlQCg9foP/GxBZ6vcZ1vuEUnH4uTHIDfq4PH2sLMenRTu6mOHj3aodlaZi/eQsPHLqKfVQ73XaUi+tbgQau2tj/9Siv+6Mc5yI8df+EqudhK/Pbo0n86rdm4j0WYM2tafWvYgXmJBOXps5fkqcx0FA6lSJqAR6tFrhwacP5p5dM/fvKSPmgfKHq0qCrXS0aJlUkb0scBFwEFhHGUzwoTODi8VQ508codbg8AMzQwKNHGOPkYZTcsbgLu5fL1u74rfNvqHxufFJr9pkia0KZGcPiDx8/p/KVbXFOAdhbx4sak7F+loWgqYQ8OfL7o6WfnMw4A3m38uAHbRaBc5869x9z3IqQygFdvPLhgMEVSd4eqHG+oY+GiZlTfR3A1BvbYuXMnlSxZUl9zjAgZBTY01Gk+nHsvnTp3Xd8SPPcfPtPa9vpVX/MdDPL2Pdu9gpT/q81duo17do2ZukzfKghfFilTptRDjhMhvddCMyVTv671VS7oRN0HzODeaSEBPxvNSw3gCydLbHugh+17TtCoCUu45LmNncIxQfjcqVTJvG/XVKGHZkomNDWcPakr3X/4lGo1GabMy6DVYv6Bj50lQ/AFMijJRtVd2+6TKFGiuDR6QLMQTT9B+Fwxc4ozU4UeWn8CJaDjhrbiMd0atB5Ni1bs5FLWsABfs9+IudSp91RKnyYZ/aESkaR2cnxB+BJYtGiRHgo/n8WUTBhUAv3NT5+7RpXKFeDGFHm/zkBRo4ScG6MP9q59p2jG3A08WAPGdR/eu3Gwfb4F4UvAzCmZTBX6+vXrwzwqBkq0MVDfkDHzuQQ1jltMHmUGbY7RRh2dO1AajRzfw9ObRT18/BK6ePkmPXv+mgeTRC6eKX3yf6VhhSCYzdChQ6lv3776mmNEiNAbNGhA8+YF32ghJDD0MUYH3X/4PDc5RP0oBO7i4kzRokWhN2882BdHNU3UqFHomxK56Ovs6ale9RJcxy4IViZChL5ixQpTm+0B5PS79p+iU+dvkqenF9cH58qWjvLmzCA5t/CfZuzYsdSlSxd9zTFMF/q5c+coTZo0KheNuB5FgmAlzPTRw1zqDhM9WbJktHr1anr1yrctdWimZBIEIXj69++vh8IPCx2ZeuDF2I7CL2NBDx5j6dChA3c+gKleunRpmjBhgsNTMgmCEDJNmzbVQ+EnUpEiRTRbbasPHz5M+fLl09d8CXzcvn37WOxo4YbcvVevXtSqVSt9ryAI4QH9RtB/JDSY7qMfPHiQSpUqxbl+7969ucQ9ZcqUQRIDQRDCxmfho6NnDcSNxAB1fbipSZMm6XsFQQgvU6dO1UPhJ8xC79ixI98ITHYDR6ZkEgTBMT6LKZkw4mtgM71Hjx56SBCE8PLDD45PQx0SYRa6LbJly6aHBEEIL7t37w5Q6+XIErimzFhMbRmH4Z5DGvJZEATHmDlzJr1+/TpAdbeBvW1oy+J/ckZjv6lCb9GiBU2fPl1fEwQhPLx8+ZLc3EI3JZjppe62CGm4Z0EQHOeznZJJ2r0Lgnl8tlMyhTRtsiAIjoPeoGZhqtCjR/90s25+SaDYAwtKO+0UgQhCiMBHNwvx0U0Eon748CEtWLCAqlatSmXKlOG2yleuXOGOQIIQGj5bH/327eBHcv0v4+npSUuXLqUKFSpQw4YNac2aNdxMuGfPnlSiRAkeRMDMSfOE/z6ZMmXSQ+HHVKE7MiXTfxWIunXr1nT0qO986mg1aLQcvHPnDv30009cLwpzXhAcwcwpmUwVevbsoZvi97/CixcvWMTPnj1jcSMHRz+AxYsXc72mi4sLCxzbHj9+rJ8lCMGDzMM0VO5jk089JdN/iZMnT2pubm4oddOyZMmiXbt2Td+jaU+ePNGUr4U+/1rkyJG1jRs36nsEIXg+2ymZDhw4oIesg3qHdP/+fb8S0oIFC3KXXYN48eJR2bJluY0BcvVt27bpewQheL799uMUZOHFVKFPnjxZD1kL9ORTuTWHYb77+PhwGKC0/dGjR36l7u7u7vxXEELi119/1UPhx1Shh3ZKpv8C8Mkxsk7GjBl5HTk2St/ht3t5edGWLVu4o8G7d+84V7c3cR589yNHjrBVdPXq1QCJhWBNzJySSXx0E1Ai1vr27as5Ozuzn+7i4qIps0urV6+eljhxYt6GpVy5ctqrV6/0s3xRZr82btw47ZtvvtHixImjxYgRQ8uWLZvWrVs37dSpU5oSvH6kYDXM9NFNFfr69ev1kPW4ceMGCxmFboaw/S9fffWVtnfvXk356foZmnb37l2tTp06WrRo0YIc7+TkpGXOnJnPEazJ4MGD9ZDjRIjQf/jhBz1kPSDgO3fuaAMGDNCyZ8/OJewQPVLl5s2ba8eOHQuQOyufXRsyZAjn/hA2rIFChQppZcqU8SvBxwLLABaDIDhChAh92bJlesi6QPCvX7/W3N3dtShRomirV69mUQfm6dOnWv78+VnMSBDGjx+veXp6sqgPHjzI7x/7kGCcPXtWP0uwEmPHjtVDjhMh1Ws1atTQQ9YFhXPGeHpYXF1d/Urk/YMCN2NgD7SJ//HHH/k8NK7BePpoRgtQJTd8+HAO2+PevXt0/vx5Xt68eaNv/TTgflCzsGPHDi4VRmGj+o5IJVw8TRfuwczOGFZGJf56KPyYKnSZkom4dN2oToMAIAoPD48gTV+xDQtQvjgpP53DBmnTptVDxNezB+JA81qM15cjR45P3pbh5MmT3GHnf//7H7Vr146UFcc1BJiiCy0jc+fOze38hfDTr18/PRR+TBW6ladkgsD37t1LnTp14oYO6MCCbX369KFGjRpxu2X/uW2MGDH8hgnavHkzXbx4kcMAc9lt2LBBXyMqVqyYHrINEhEkLEbi8qnA9ZHL/PPPPyzunDlzUtasWXkf4o2Ie7ASzZo100MmoH4Um4TFR9+5c6ceshZeXl7ajBkzuOAN/jZea+AFBWyoMkOTWGX2apUqVdKiRo3K+3COErO2cOFCTQlcU2a8FitWLN6XIEECroKzB8oEUAiKY+HPb926Vd9jPsqy0FSOzXGhFgFNf/HsKFdAFSG2K1dFU7m7foYQHrp3766HHCdCfHR05rAayMFgvmJaqps3b9rNzeC3ouWg+iHo+++/p/Xr13OOj3nrcA5yyebNm3MnGJjByNXh47dt2zZcrenQcAdNdLHAj/Z/fxiqaOPGjTRmzBguB4AVAesAuTX61fs/B9YIyhWwDpTQ2SpB99zgwLlwX4x7wP34B42K4O//8ssvNHLkSFq1ahXHhfPQiAjnBOe6/JexNchjmFEv1CZhydEnTpyoh6zDrVu3tIwZM3JuhgWNXho3bsydV3bv3q0pPytITo86cmX2cs43Z84cTfnjAfYjHDduXK1Dhw5cOh8c9nJ0bEcYccM6QJ38oUOHeLu3t7e2bt06LvVHHT6q9rAgjCq+33//XcuQIQOfV6VKFc618duiMQ/iQFyoFsT+jh072s3REdeuXbv4W8KxKVKk0JR7x/twD9u2bdOKFy/O1zXuAVYOJv6E1YP7w3k5cuTgc6zG2rVr9ZDjSD36J2Lx4sV+Hz8+VJVrB6kvh+CTJ0/Ox2ApUKCApnI2FgIWJBajRo3ij75gwYJau3btWJQQQ0jgfFtC379/P5v92B49enRt+fLlfCxYs2ZNgLp6JDwQqPEc2BczZkwOly1b1qbQ8awQIRIje0JHtWCaNGl4e/z48bn61Xg3uB//94DrGveAhC5p0qR839iXLl06PkcImQgROnw2q9GsWTO/jxXNWJWpqe/5CISCnM8QSerUqfU9QUHCEBoCC33Lli3a0aNHudEOtkEwyKFxD+DChQt+CQDq+XHPqMNXZqKmzGdNuV8sOOzHYggdidGiRYv4ethevnx5juvixYs2hY7tSLSwDSKfMGECHweQyH399dd+x6N8AnXGSDRxHO7JaEiExapCD0vGGSFCtyLInfExIhcaNGiQX64ZGJjoRi6JxjRmEVjoM2fO9BM5hBzYnYJbgX1Yqlatqin/Wd/jCwrcIDTjGEPo4MqVK+xmYHujRo00Dw8P3h5Y6MOGDdPy5MnD63hmiNgQOUDCg314Z2g2jBaF/kFiWblyZb+E0apCN7Otu6mFcVYc7lmZr/xXvUuuUlPmNq/7J/A+FMB9ChAPfgNlMvOIvEOHDqWmTZvqe33r7q9fv87h2LFjc7Uf/vpH5b7Uvn17brgTFlCQh0JHDKmF3npdunThaiL/1zO6X6LtQMuWLUlZCbxukDBhQurevTslSpRI32JNPtvhnjE2mtVQOboeIlq3bp2fkPyDEnTUsauckdfjxInDfw0gUJSAGyXdKJlGaX5owXXQSg7nqtyQqlWrFmAIbpRmKxOcwylSpOAWeSpX5XUDrGNf4Ht0FGVh8HPgXiDuwoULk8rV9b2+GG0GkEjaGgAR95A3b17L993HtGhmYarQrTjcszJzuZoJXL58mSeZ9D/aK8SlzGdOBAwgfLQeQw6P6ill9vJ1lN/KjVCKFi3KOeGDBw/0MxwD4kbuCWEhXky25/8asCTQzBYg0bHXVBW5ckjVZvaAuDFMsTLheYLA/v37BxkdGDk9wPMrk57DgUFiZ2+fVfhsh3sO3IzTCuTKlYtzLeRCyM0wWADqmNEibsSIETyMFD52fPQAQrt79y7/iBg1tk2bNtSrVy/at28f58bIDU+fPs2JA5qZnjlzhs9zFOXbcl097ufgwYNcNw3hAiQAyt/l8LVr17i1Hu7ZPzj2xIkTfvcbWhAvmsiieayzszMdO3aM3wMSNwO05QewYtBkN7D1gnW0FsR7sjJh/Q1sokwsm4SlME75dnrIOqAwDANEKFMzQF24rUX5nNrUqVO5Gg3VUzjeOAelzKiPR/26UWiHpWbNmsFWswUujEP12uPHjzUlJt6G+niUghvVWujjbMSZNWtWrvpDrzlcB39Rkm4UuGEJS2Ec4lPC5pJ5bEM1GaodjedAH3sUFGKfMt25Th/Xwj0gLtwDvj/sx2LVwjiMVxBaIqTUvWfPnnrIWuADRb218om5Ksm/4BGGcFE6v3TpUhacyrm5L7pRj4yPvmvXrlz1hR931qxZfvXPSACOHDmixxQUW0IHuB/cC7bjt8Q6gACRCBj3mCpVKj6/c+fOmjL1eUQc7DNKvMMqdOC/u61xD4aYUeJv3AOq7DAaT6dOnbQGDRrws6Nu39hvVaHjewgtESJ0ZYrpIeuBD1j5vDzKDoaVQiszfKx169blNuyoQvJfRw4RoBUdPmQMNoE28AY4Tpn7vA8LRGUPe0JHgjJt2jQ/wWIAC6OVHRqyoK26cX3/wsZftGePFy8er4dH6HgOhJHQIQ60dDNyqePHj3PiZ4jZiNv4W7p0ab86e6sKHUOHhxZ7QncaiNIjG0yaNIk6dOigrzkGSpxRPWNF1AfL/jdKSgsVKsRVSChsUjk3KfObS5hxjAF85NmzZ7NPjGmcqlSp4lfthuPgnxozdaC6SeV0HA4MjkWbcLx3lBeUK1eOS6uVWLjrKuJNliwZl6JjAEtUWSVIkIAL/7AN8WNB6TwKA5s0acK/O+4F3WcxfHXhwoX5ejgO7dZxHRQYIj7jnuGDwyfHNiVSLrnHvaVMmZLfC9ZxX0mSJOEuuHgmlPor14LLCVDwhntQHzdXCeKzxHYcixJ4lHVYDZVoc7+I0PDXX39RrVq19DV/6IIPQlhydOQsgm87bvUhc7ttexM2nD59OkCO9fDhQ32Pby6NHBP7sMCsDw4cbyy2CG4/cus3b97wqDhGzg3snWPvOsCRfYH3Yx0WAeI37sE4xt45gn0ipMGMVadkMlDvk3taISdGiTJyQEyrg9wbYf8oP9TvfWG2VYwog9FaUAqNPu2rV6/mfch1u3XrxmF7IOc0FlsEtx/VYMhJUUWIsIG9c+xdBziyL/B+rKNKDvEb92AcY+8cq/D333/rIRPw1XtQwpKjWxnk4ihNNkq7/S/KXNXmz58fpAwDnTwMP93WAh//p59+CnX7d+G/wWfbBNaKUzIZ7Nmzh5TrQocPH9a3fAT146hXnjNnToB66/Lly3M9N/zQwCAnR/90nAf/WLAeZk7JJD66CaDKClVTysTkBT736NGjtdmzZ3NvMFSR4VWjnhx13P5Bbo0SePRbR28vdAaBf46+yEaptiA4SoRUr2E4JSuCgjX/ddZnzpzhAiaIGBM7GA1HYIpjsAVboBDq+fPn3JsMhWNSACWgW3BoiRDTHe2srYZ6h2yaP3nyhNeLFCnCTWBRwASTG9VLFStW5PbdSvhcZWILFEKhJxlMdhSOWbUASvhIz5499VD4MVXo/kcutRKoSzaEic4g/v1wJAQogTe2GR1gBCEk/HcxDi+mCn3hwoV6yDpA4Mi1UV0Gtm/fTitXruRBFNEpAYM+oqMLGoQgV0fuLgiOgM5QZmGq0M3sVvclgVZf6LEFUx316HXr1uWZVzp27MitlNAbDKDlWTq995gghAS6L5sGe+o2kHr00IECOPRKQ4EbXmvgBe8TY7ZLIZvgKJ9tPfqCBQv0kPVAAdy8efN4eCYUqKFwDW2/0Qe8ZMmSPF0V2mtLIZvgKH379tVD4ScS1K6HA4DOGcYkgI6Cjhf42K2Mh4cHT+SADj7wy5MnT84NYtzc3ETkwicHE4DYmvjB1BzdzFLCLxWMsoNx0NCLDKO9oDcXqs1E5EJo6dGjhx4KP6YKHSaqIAjmYOaUTKYKHX3YBUEwB2NYbDMwVegYjFAQBHMws1OLqULHoPuCIJgDxigwC1OFniNHDj0kCEJ4MXPgCVOFbsUpmQThU2GMGWgGpgrdilMyCcKnwtZ0VWHFVKGb2QhfEKzOZzslE/pRC4JgDvbmxgsL4qMLwmfKZzttsjFLpiAI4Qcz4pqFqUK34rTJgvCp+Gx9dKtPcysIZpI+fXo9FH7ERxeEzxQMSWYWpgodk/oJgmAOu3bt0kPhx1Shmzk8rSBYHXsz6IYFU4UuvdcEwTzMHDHYVKFLf3RBMI+pU6fqofBjqtBLlCjBfzHMcbFixejcuXPcugfDH9esWZNnM7l8+TJPgN+6dWs+du/evTy7iVE1hwIIrE+ZMoXXZ8yYwetLly7l9WHDhvG60bPHiOvs2bM8Gb8R1+PHj3k6Ykz4b8S1b9++AHGtWrWK1ydPnszrRlxLlizhdSMuTH0MHImrVatWfKwRl9EsOLRxYepk/3HVq1fPtLiGDx/O6zt27OB1xFW0aFE6c+YMj0WPuGrUqMFxXb16NUBc+L1w7MCBA3lyCvxeWMfvhZloMFgCrm2MjuJoXBgmO3Bc+/fv53ON58JU0lg3MpSZM2eGKq769esHiAuDdbZs2ZKPNeLq168fr5sRF6rHzIjLDEwdHFIQhH+XCBkcUhCEzxMRuiBYABG6IFgAEbogWAARuiBYABG6IFgAEbogWAARuiBYABG6IFgAEbogWAARuiBYABG6IFgAEbogWAARuiBYABG6IFgAEbogWAARuiBYABG6IFgAEbogWAARuiBYABG6IFgAEbogWAARuiBYABG6IFgAEbogWAARuiBYABG6IFgAEbogWAARuiBYABG6IFgAEbogWAARuiBYABG6IFgAEbogWAARuiBYABG6IFgAEbogWIBImkIPB8Dd3Z369eunrwmC8CWwZ88e+vPPP/W1j9gVuo+Pjx4SBOFLIVKkSOTk5KSvfcSu0AVB+O8gProgWAARuiBYABG6IFgAEbogWAARuiBYABG6IFgAEbogWAARuiBYABG6IFgAEbogWAARuiBYABG6IFgAEbogWAARuiBYABG6IFgAEbogWAARuiBYABG6IPznIfo/YmJBsVq4Vx8AAAAASUVORK5CYII=&quot;&gt;" style="whiteSpace=wrap;html=1;aspect=fixed;labelBackgroundColor=#f2f2f2;strokeColor=#666666;strokeWidth=0;fontColor=#333333;fillColor=#f5f5f5;" vertex="1" parent="45">
                    <mxGeometry x="245" y="60" width="160" height="160" as="geometry"/>
                </mxCell>
                <mxCell id="35" value="" style="shape=image;verticalLabelPosition=bottom;labelBackgroundColor=default;verticalAlign=top;aspect=fixed;imageAspect=0;image=data:image/png,iVBORw0KGgoAAAANSUhEUgAAAPwAAADNCAYAAACcjR1vAAAAAXNSR0IArs4c6QAAAARnQU1BAACxjwv8YQUAAAAJcEhZcwAAFiUAABYlAUlSJPAAADvnSURBVHhe7Z0HYBTF+sA/kpCEGkAURGkKiCACiooiIKKIPLs8EZ7lAYr4V7GC2EVFwfYURZ88K6KC2GgqitJRRHpHeu+hhJqQ++9vshOW4/Zyl+zBnpkfrrnd292Z3Ztv5ptvvpmvSMBCDAZDoSDB/mswGAoBRuANhkKEEXiDoRBhBN5gKEQYgTcYChFG4A2GQkTIYTkOmdE6gyH+SEgI34aHFPh+/frJunXrpFy5cvYRg8HgdzZs2CCPPvqonHzyyfaRowkp8G+99ZZccMEFcv7559tHDAaD33n55Zfl1ltvDSvwpg9vMBQijMAbDIUII/AGQyEi6j78jp27ZeT3P8vYCVNk6dIVkp2dLbXPqCE3XtdGWra4WJavWC0fDRwiLS5pIldc1lxds3//AXn/o89l67Z06XZPJylXtow6PmfeQvl8yLfSqmVzaXZxY5n02x8y+MthMnvuAkkuWlTOrF1D2v3zWmnR7CJ1vsFwLNi7d6/MmDFDyQCMGzdOyUJaWposWLBA5syZI9WrV8/9HlavXi0ZGRly5plnyqxZs2T37t1y0UUXyfr1663yv19Zz6dPn65Gv/jMd6eeeqps2rRJxo4dK6VLl5bmzZvLzJkzZe3atfZdRc466yypW7euFClSRPbs2SO//PKLyl/r1q2lTJkcOdLEpA8/feYcee/9QXJCuTLStctt0r7dtbJg0V/yxLMvy9Rps6RYsVQZPvIn+eqbkfYVItvTd1iC/Z188eV3MmPWPPuoyC9jJ8uwEaNVhTBvwSJ5+NHnZO26DfLgfXfKg93ulPInnCA//TzOPttgODZs375dXnvtNSVYCNlTTz2lBPrAgQPy4YcfKqG+++67ZcmSJfYVImvWrFGjW4cOHZJevXrJv//9b9m2bZt888038scff8hPP/2khL9Zs2bStGlTKV++vBw8eFCeeeYZOcEq51988YUMHz5c6tSpIyeeeKJ07txZfa5ataoSdhrWt99+W1atWiUlSpSQDz74wE45OqIW+PPOOVt+GD5IXu79pLS3Wt+777xdena/V9Viv4ybJKeeUsmqkc6QufMWSWZmlrpmw4ZNKsMliheTSVOmqlou29qW/LVMkpOTrZa8poweM1693O4P3S033Xi1XHd1a3nh2R7Su9dj6h4Gw/GG8jlp0iQZPXq0/Pbbb1KrVi37G5HTTz9dyUB6eroS+tNOO0211MuXL5fzzjtPnUOLXKlSJdUCp6amSlZWlmrRv/76a+nfv7+0b99eDYUj8Ah5hQoVpFSpUupatAKG3O677z5JTEyUv/76Sx2PlqgFvnTpUlKyRHH1WfcG6p5ZS5KSkqwabbv1sFnSod11VqueLtOmz1Lf/zp+stSoUU0ubNxI5s1bbNWc+yz1Z4+l/q+y1JpKUqVyJSlfrqx1bbb8Om6yenGahIQi9ieD4fiCwKKK9+zZU2688UbV4msqVqwoRa1uKOo8qvnVV1+thHnLli2qBYcuXbooYaWFnj17thQvXlzuv/9+GTBggOouLF26VJ0XDgSdtBs1amQfiY6oBf5gZqZ8M+wHechSv9vffo90ufdR6df/Q0s9ycytABrWrycnWirL4KHDVCv/05gJqhVv0byJrF2/QTZs3CSbNm+Vdes3yf1Wn56XcN01raXROfVl6Ncj5eKWN1j37yXfjfhRdu7are5pMBwraH0RxmBoZV999VX57rvvVN971KhRShV/4oknlKMags1nWnv69//73/9UJVCyZEl1PYJN64+mUL9+fXWsQ4cO8ueff0rbtm3l448/VpqwE+7LPT///HPZvHmz/N///Z9cd9110q5dO/uM6IhK4MnMEEuIn37uFVmxcpW0vKSJNLFa7TJlSttn5FD51JOtvsepMnf+Ypk9b6Fq+evVPVPOqHWa7N93QFavWS8jRv0sZcumyaVWJQAnWC38e2/3lWefekjqnVVbJkyaKt0fe0Ge7f2a6usYDMcKDGi0uPS9aYnZx8A2b9486dSpk+rDs6Gao4b37t1bTjnlFEuLraHO4S9Cj3pPHxyhB/r09MHZMOqxf+2116ryjdrP/VDlnXBf7n/TTTfJf/7zH1XRPP/880dowdGQ+KyF/TkXHpQHJDEnqOIP93xOkhKTZOhnA+TCCxpJg/p1Vb/9q29HSTVLyFtdfokUtdT7xX8tt1SaOZb6UkwWLFoqd3TsIKdWqmhpB99bwl1OvrbOb1j/LPlH68ush8y5f0pKstSpXUtat7pUWl/eXP60rp85a55cc9UV1g+Q05cxGGINGidWefrfWN4ffPBBZWSjb02/etmyZXLFFVccYaUH1PoLL7xQHS9WrJiysHMeXQFaf7oAGO5wgaUSoT+Pao4qT8Vw/fXXq8oBDePcc89V19NVBhpbNAWOI/T0/5FRJ5MnT1aag+73h8RSw4+iX79+galTp9p7h9m1OyPQ4IJWgaaXXR/Yt2+/Omap+IEPPvkicMbZzQK33/lAIGPPXnV89Jhx1rGmgZZXtgtc0qptYNu29IClzgS63PNooM11t6rvPvh4sDoXtmzdFrAqFHsvEMi07vv4M30DdRq2CKxYucY+ajAY3Ojbt2/AqlDsvdBEpdKnJCdL04svsGqYrdK122PyzoBPpNvDT1v97lFWnydV5sxdKBs3blbnXtDoHKvlTrDU93WWin+KVculKXXl4ibny9JlK6z+UKJVg52hzoXn+7wpt3TqJr379pMBHw6S7o+/IMOsPnyD+nWsWvVE+yyDwVAQolLpUXXq1a0t27any6rVay3BXSnlTygrjzxwl5x3TgMpWaKEqhAYfktNTbGuCEiypaa3v+laqXl6NSXwJS0Vf8PGLVK3Ti254Zor7fNEOdqsWLlaFixcIrPmzJfdGXuk0bn15f577pBTTq6gzjEYDO5EotLna7YcRob9+w9aV4ukpqRY/Y6knLF1q5+h+xyARTLL2ujT63m6nGep69a1RZSQa/Tx/QcOqv4J9ylmVQba4GEwGMITs9lyOMuULl1SSpcqaX0uqlpuBNop7IBGQDdACztwLtc7hR30ce6J622p1CJSZP86yUxfLIf2rJdAdo4Tj8FgyD8RC/yhA+mSvW+rvRc7EOw9Cz6WbcPaSvqIjpI+qotsH3Gr7Jn3P/sMg8GQXyJv4QOHZPfsd2TX7y/Kwc3TLBX8SAcBr8jeu1kSkstIyXPukVIXdpcSDW4XS8eX7P077TMMBkN+iVjgE1PLS+lGj0gRS4Xf+esTsmNMVzm4ZaYEMvfQAbfPKjiJJSpKSpUWVs6Kyv61v0hqtcvF6shLUqmq9hkGgyG/RNWHL5JUXEo1fFhKX/ykanF3/PiApP/4f7JrWl/Zv368ZO1aYSkC0XvFZWfulcwdi2XfylGya3IvSR/ZWfbM+UBSq7SRrN2rrP5EESlaoYF9tsFgyC/5XtMu+8BO2btkiBxY8rMc2r2RO0mRYsUlsfQpkljqFEkqd6YULVPD0ghKSZGEJKxyORdaXYFA9iHr+h2SuX2xZG1fKNkZ6+XQjvUSOJgpCcXSJKVGcyl+xs2SWLKyZMzuL4f2bpS0xr2se0RVPxkMhYpIrPQFW8TSujR7/zbZv2a87FsyVA7ttAT/INZ065YIuNoSrP8QVDaSCiiBR/Bzdq3/MWxXqpyknv4PS4VvJUklT80V7oyFn0jxGjdYGr5xrTUYwhF7gXcQyNonmekLJXPLHMna9pfV6m+S7H3bJHAgI0fNt5MpklTUavVLSkJqOUsTqCCJ5apL0fL1pGi5upKQkqbOcRLIzrRk34zFGwx5cUwFPhd1O0ttP5RpCasl6IyfOy36tNwJidaf5BxBLpJobba6bzAY8k3MHG/CotR4S6CTUiUhubRqyROKlT+8sZ+cZn1fzErd0bc3GAwxx3uBNxgMvsUIvMFQiDACbzAUIozAGwyFCM8EnimtO3fuVAv0AWtusb9v3z61z3H29Uqfu3btUvtqqqwFn9m4j3OfKbcMJPCZdcD4HKu0mM7rp7S4J/smrcKXVsywMn4UbktchWP69OmBW265JfDOO+8ELCENfPnll2p/1KhR6vvevXur/Xnz5qn9jh07qv3NmzerfT6zpaenH7GfkZERsF6U+vzoo48GrJcXmDFjhtrv379/RGl16tRJ7UeSlvVjqs89evRQac2cOVPtB6c1cuRIde2LL76o9ufOnav2vUxr6NChat+LtNj4HJzW22+/fURaI0aMUNcGp9W5c2e1H01a3bt3V2nNmjVL7bul9dJLL6n9OXPmqP38pPXII4+ETOurr75S+zqtPn36qP3gtDZt2qT2+cwWKi1LgNXn4LTeeuutI9IaPny4ujY4rTvuuEPtB6e1ffv2I/ZJi3ekr4uUSJa48mwcnggbl19+efgF9AwGQ0QQZYYFK1kUM1KO6Tg8C+Tnd+lcg8FwJGeccYZUrlzZ3vMOzwQebYCleQ0GQ8FBWw5ehtoLPBP4Fi1a5EbYMBgMBQOVnvh1XuOZwH/yySeyY8cOe89gMPgRzwR+48aNarhhyJAhymhQpUoVFW6HeNYFhaB8P/zwg/z+++8qbnc0EJuLeGCAfZKwPUQIIX9EBUlPT1ffhQPbxOuvv54b94thkz59+qghlILAcEyPHj3CVpQM7fBOCTdMWCM95MM+4YkIVxRLeHbCH+uhI94hvynqJhvx1fR7iYQVK1bIt99+a++5M2XKFBU3PYRNuVCAwQ758RrPBJ4Ad4TPgcGDB6t42sTlIng+ED+b+FhvvvmmWuaa+Nbvvvuu3HbbbSpIHpUF8bXvuOMOdS5C8NJLL8mLL76oguwNGjRILVlNt2HixInyxhtvqBjaOm43hZKNc9nXEMerZcuW9l4OP/74o7qub9++Kg8UZtb0Jn/EAicu+Lhx49Q+Qfwo0BkZGfLYY4+p+F4awvwSvpd44vDpp5+qawgOCL/++qvaJx2uZ/SDCodKZujQoXL77ber56RQjxgxQp3LXyech2Czoi8V6fz589VxKrJq1aqpz1SIXNutWzeVd/1+OnXqpJ6TCuqdd95R53z11VfqeYhFzv5nn32mrtm6dava5x3qcWLyS5x0Z2w/3i3PheCyUQET+oiwTFRIumKkkuJZ+Z11nqmkWNmYsE2cw29FHvmNqNgIlEhYJ/LDKBHX0ZAURrDOn3TSSfaed3gm8BRGvYb8ggULVP8DISIoHz8grSzCTuGjVaCQEm8LIaL1JswuMbWefPJJVVAQIgo/hYDg+rfccotyeKBFQ6Co/ThOV4KWAIsmlQ73cjouUGCccbydEPQPwSHeF60OAsuwInkZNmyYKpDkkVYOgaAywHmCWGBUUlQ+//rXv9R5ixcvVgV04MCBqiKgAFOQiS6KgC9cuFAVeM5HgNhHGFieG02B66lcyItuxakkuCctKecRZGDChAmqkuAevC8+I1wfffSRnHPOOSpv06dPl+rVqythIm9UvMQ34zOxzRFOKgXS53dAwPnulVdekTp16sh7772n3iPPQKXk1IL4jckf74KAJVTQxFujIiE6KkuSk0e+u+aaa6RJkybq9yafPAtlgUqI+Gw0EFQo5G/kyJEqLSodKnruc+mll6rzCiO+78MjLPyooAsx44LEyaZVQEgRSAoWLQNQixNED4GioFPYqDj4sRFu9omlHQwqOYH2+EtaCEuzZs1UJUCAPicIqNvoAS076SAMpHvJJZcogeX8xo0bS5s2bdRzsE+FQghh8gu0UmgO5JFzlixZoj4jhNwLoUBQKPBoPIDgEvAfDYYuBcKDYFLJcLxp06Zy2mmn5eZXv0/W9we+4/OkSZNURcR7Iu/k6bLLLlPaCvBe6tWrpwSRc7gOoUOA0LiobHgeKizeI1DJIWxoVHzPxjsgzwwRaUgfIUW74jMVDTHQqUCwLBMimXvxfvgtSIeKgzyTT34voDzwDGXLllUVw9y5c+Xuu+9WGhPXU2aoEHTlZ/AGzwSe1ki3rITSbd26tXTv3l1+/vlnVTBatWql1GQcdAiRC7S+tJxcRwGhgCOA/MiosCkpKbkFxAmFWAsBIGC01AgehUuzdu1adQ/OD8XKlSuldu3a6lpaEjQF4nXT4nEc1ZXn4r7O9ICKhOtIA/UUwUAroRJBC9H5QBD083IPNgSS87iO+/CZymb8+PGqu6H75VR2vAfOA64l/BctesOGDdUxWkv61OQVIYTg98P3VLbcG22HvPKeeU6dFsOqnEfFcM8990jNmjXV78PzO1t48kvlTuXKNQgsv5fOP10FoqDqPPAMVGpoN1Tw+vfUFQGVPRoh+UJLoLwQ/YzfDS3G+RyFCUa9kCOv8UzgUb2psZ2QadR6BIYKgEJCYdKtNnGuaSXRAlBX+cEpONT0tFwaugWon05hdkJlgjbx3HPPqYKiQVWksAVDXihwjz76qMo3rS0hfGklESgKMN0JjqOCatuEE459+eWXqt/MM9GiIvz0q/lMJYSwIxQ8LxWbhjS0RkOhRjhQh2mJGzRooFp74B2gVfD+NOQbgdWaDK0492/evLkSplDviHfLO6V/zPsgbwgSLTLPB7xDhJxWnmfjHVFB0AXR+QG0EfLAu2Ejf/y96KKLlCbwwAMPHFUOeE7Oc2pfGKXQDvhLJUL6N954o9JCeB6eBS2AtAojdevWPUIGvMIz11rUVApScLipUNCiUTB69uypCm9BwcsPAUUNxNBB3/7v0jLwXun7IoBeQetOZaU1l3vvvdd37ws7A1oBNoJIytTfjVi51nom8FiiMRIRNN9gMBQM3/vSGwwG78Duc/bZZ9t73uGZwNMfNq27weANGENj0ZXxTODpZzodNAwGQ/5h+Dpar9JI8EzgcZxwWpMNBkP+YVTDOeLkFaYPbzD4kLZt26rhXa8xfXiDwYfguo1/gtd4JvD4/eI1ZTAYCg5OT7hre41nAs+ECRw6DAZDwcHVPJSHZ0ExfXiDwYfcfPPNyr3Wa0wf3mDwIcwuZHKX13gm8Pg964kYBoOhYDBFmAldXuOZwLOQgttsNoPBEB3MEoyFxuyZwDP1Ua94YzAYCga+9KzI5DWeCTyzdGIxf9dgKIywNgSrAHmNZwLPSjZ/h2G59AN7Zdbm5RFts7eslL92bJRN+3ZJdiFdXdUQG/RqQ15j5sMH8eHCcTJrQ2QOD0Wsf4kJCVI0IUlSEpPk7Io15cqq9aVEkvc+0IbCBUt9scRVNAvEHNP58CylHO+hptZkbItY2CFg/cvKPiT7sg7IjgN7ZMKqWfLYhE/kf/PGyEyr9c+0vjMY8oPvQ02xFlm8h5r6bd0i+1PBmGup+x/N/UnemTNa9h0yU4YN0dO/f39/L1M9cODA3GWV45GD2Vkyb9tqe88blm1fK71/Hyp/bCqca6sb8k+InrYneCbwOAnoiCXxyLAVM2THfu+NjrssVX/Q/F9kxMoZxrB3HKFsssgpC6jGA74PNcW4YSyc/Y8F6ZZQTlu30N6LDeNWzpLvrT6+4djDLE5WMmblX5ZEj4eFWnwfaiqeHW8WbV8n2RKQ5MSiEW8JIQJkhCPT6jL8tHyajF49x0rJcCwhzgBhvAiEwrRTQoD5nViFmvJsWI5ghczwcQYtiBd2HtwrGZmHA1DmTUCyDmXJAWubb1UWf2xcLHsORDaPoHjRVLmn4VVSuWT8vad4hcg5znJJgJLgFWERrqlTp6pIPJxL+KtYqNSR4vtlqnG6cQZxjCfSkovLKSXKRrGVk6qlT5JaZSvJ9aefJ89f2F46nn2FVLGO5dXu783cL+/N+VH2RFXBGGINy0kROYeFWAmCcbznhfg+1BShjIJDDBUWkhISpWH5qtLNarn/UeNCSbT2w7Frf4b8tmGxvWfwA4S3IswZ0YwJqBkLYYuGWIWa8kzgWX9LBz0srCQnJkmrKvWkfe3mrgEsNVPWL1JOOwZ/QCw7HMcQMuLnHW97lO/DRX/22WdHRBktzJxfsYbcVb+NvRearXt3yIT10bfyBKzUATmpVNiwtxD5NVqIfktM+F69eqmN4J6EiQ4FUWV1VFg2AmISy3/Tpk32GXlDPDs8MvU9sEITHjqaed9EySWOPALJPXDlRrskZHikED+fSLd6K1RrMWK0C6Zfv36BqVOn2nuR0adPn8DmzZvtPcOh7OzApwvHB+775T3X7ZkpgwP7szLtK8JjVaaBjh07BooXL46RNeRmCX5g8uTJ9hWhsfqogQ8++ECdawnMUfewhNg+MwdL0AOWkAasFvCoc9lKliwZ6Ny5c9jf/uuvvw7Url075PVsVuUV6Nq1a2Dnzp32FUfz559/Blq2bBlITEwMeY/U1NTAv/71r8DKlSvtKw6zffv2kNforW/fvvaZ/mH16tWBjIwMey8yeI7169fbe6HxrIU3S1wdCcN2l1VpELY/j1POBqulzwtaoH/84x8qvHK4VYWwMjdp0kSF6A4FTiePP/64iiPPuaG6YE7HlClTpqiRl2nTprl6fjGji1DehJXGscUJ1zCLkjDQixa5uy1jIPvvf/8r7dq1C+m8tXTpUmU1R4txMwzzjtAy27Rpo5Z4jobgfPsBRgpi0a3wTOAJ6m9CTR1JxeKl5aJTz7L3juaQ1Yffti+8EwhC+cQTTyjh0zBc1Lt3bxk8eLASNpyenHHIiHkf3L1C+N544w159dVX7SM5NGrUSAU9YEPgrrrqKnUcAbrzzjuPmPKMUQsfb9J96qmnlFqvQRhfe+01ey8HBA8jmIY8UjF8+OGHufcghpqGMfL333/f3ssBYezQoYOKp69huPjNN99U9+A91KpVy/5GVMVC4xMO4vATs15vVJJ+g8qdrofXFNrpsbi59v3zW9mwe6t9JHJovSuXOVnaVG2ghuYSi7jXmxv37JCXp33taqBrXqW+3FjjAnvvaBA4LLbEiYdzzjlHrR/oHBGh1bO6VKpPraFlpc+twaiKcBNLH6pXry7ffvut1K9fX+0HY3Xr5P7771efaWkQIvr4TrAnUEk4KyPsAjhhAX12vgfizyOkVEYYyDS03swM0ws2Nm/eXMaMGZNbgeEwQyUBOpY9FZcTKicqPaaU6uJsdQHUODZEMg7vN6gUGzRooH7vSDHhosMwe9vqfAk7UFmsSl8v/5szWsaumW8fDU2J5FRJS3GfRbh1X/joItTyCJaGmj94+BNBeOSRR+Tiiy+2j4i8++679qccxo4dmyvsgDC6FXpaVavfbe+Juu8zzzxj7x2G6ZtU9BgQNRjVNFQ6mmbNmsldd911hLAD2kqPHj3sPVGrvGi1HuF13o+KD+NiMFb/XXUJdEUDGBnjGbpBZ53lrh3ml0LZh2ee+vjVc+y9/EOrPWr5H7J1v/vKJEWtPnxqkntfbNfBffan0Pzwww+5rRbqp5uQEngQf3ENrZ2TIUOG2J9EWrVqpVr7YOHT0C93Wt8RVrfQxbRCzt99xYoV9ieRZcsOzxIk76HuQR6cmsj27dtzV3rBnuB0g+UeaWlp9t6R0L1Aa9HgPBNCeY0btm7dGpMVpDwT+HgKNbV9/25Zk8/WPRj64Ut3ug9NsRJOscRke+9o9mRG/s4QrnA0bNjQ/nQ0q1cfnvqbV5BCBM1pj6lSpYr96WhYA8EZ5XTLli32J5EKFSrYn3KWbHKjYsWKapVWoPugjWh0VagANOHykZycfMQCLFwXz34hVPQm1JRHjFgxQzIPeTeVNzXRvQVH/T8U8MbBxq2V1aDaR4JT9Y2EcJobM8+cFb3z3CuuuML+JKqLgJbh1upibKPLQfdFr/TCuZEKLd0AZz6Yuck4fbxCt82EmvKA9Xt2yJxNS+29gpNkteC1y7obSeg+HHQx2EGZ1PheJQhBdbbq+KNrGCJzWuHbt28vTz/9dEhNkHjoLMuc3ymhVBTz5x+2p5APty5LPGBCTXkALcbYNd4t/ZualCy31WkZtoU/YGkS4SbKlCqaan+KL1C3MYzdcsstub4BuKU6DYdVq1ZVnnQa3v8LL7yg+uJY6wleUlC4J4Y9rNNa/aeLQeUSzzDyEYtpvJ4JfDyEmmJ9uUXbc4a3QsEqtGkpJfLcylqtcv2KteTh866XBidWta8Ozc4De5WDjRsnFvP/oiFY0S+66KIjNoxkjNkzrAZ0NxjKc3YXOIZV/bnnnjvCko9hj1EEhpwYTkOVj2QlGhxrgvNB379ly5a5zkZ0ax588MGYBHE4llAZOn0PvMIzgY+HUFM/r54rO8NY1KukVZDnm/wrz63XRR2kc51LpEKx0BZjJ7+unW/140P3Q1E5q5Yqb+/5F9R2jLLOLdiH/qGHHsodLw+mZ8+eqkGgTx+sZg8fPlz5e3Tt2jVPGxBj/MH54JgTWnYceuKduAg1lZdR6XiyK3OfTMhDnW9c6XD/0wv+2rlJZoSZBsuQ3YnF8640/Aqqc+3atdUCpozHuxnJsLzTGuNJ9/3336u+vdOXgMVP8RjEfdZpD4gULPR4zzER6NNPP1X2gHgnLkJNOQ00fuP39UvCWuYxvp1dPrx6Hg1ZVqs+ZmX4PmrplJJSIQ4EHocZvC+d24ABA9TIDGGN6cdHCuvK4eHHdd26dbOP5sASVN27d3e1zF922WVH5QNXX67jfg8//LB9ZvzDqMa8efPsPe/wTOD9Hmpq9pbDDiGhuLpGY88MaAzF/bxqtiwMs+w1qu01Vprh3HL9AhN3cGl1bvjZo4rTUmPAw1GELRJokdEMcLX9448/1GcN5chtmjV9/uB8YPxjGSjcSXmnOh9uk2ziBaYM+9rxBsOLXx1vpm1eIWt3uauKZYqVkiYVD0/AKCg/rJopPy7/094LTeXSJ0n98jnOJvEOLTxuoGwff/yxfTQnOEm1atXUcad7sBPmx9Piayjk+M/nByYZ6Xww/KfH/Olq+n0EKRiGFbUzkpd4JvC4avox1NT+Q1nyw4o/hbBQbjQ88TS1Wk1B2bR3p3y2aKL8vGJG2PTg4lPqqFGBaMirfxurBUiCDWNOEFCm2mLEY9OTfAD/fYaWGB93utkGQwvvdNLRUVOxCeAnrwlnyec7LPU6H8EVjNMpKRbWb6/xfagphkb8GGpqUfo62ZbHnPPGlQ6rlPnhkNVfH712nrw87RuZun6hq1Vec0KJstK4Yk17L3LyGreeOHGi/UnUMk35hYrbeX241WRwmXWqnoy9a5zTVp0z6kLhNOLpeeAIqXNdNyoCt/49hj+n+y72JD0iQAuP+66GboTfMaGm8smMTctyVbtQXGC1tCeHMZztOLBXxq9bKOPWLThi+37FdPnmr9+k/+wfpefEgTJqyZSI3HXLW2nd1yD88lduUKDfe++9kM9Di8ZS4ZqOHTvan6KHMXOnOjly5EjX4A3BfW6nn76eWw+M0bu1rBxn2E6jl2ZGUJ3eZnPmzHFdSAPfc6cWQQupwWZA10LDPPpYaUNeEa7MFgTPBN6PoaY2Wir2rDButASUuLJq+AkpEyzh/nrxRPlm8aQjth8tgR+3Zq4s3rZaDmRFtvAHq9u2Pq2RlEs57IQSLVixWYeNGWVMcMFugsAwBq5bONRg1ibIL7SsrBOnW0icaxBCBIqgDqRLBcCcbcbYdauLB51zAg/Wfa31kTdW2kHd1vdgkgx5Z868NvhR2dxwww3qM9x000256jjXMlyFpoOTF/fgPeCjf9ttt+Wq/DVr1lSGRg3Xs8CHhnX7uA9z8FmHXs/O8xMYKH0daooxVD+FmsJS/s3S3+290NQsd4qkpbiP2TLtdaKlqntBsaIpcvtZl8n5JxXsR0R9ZnorLqxXXnmlaslYxIIhMg0tq9PynR/oUzsdaRASDGwY4kgXC32XLl3sb0VZyZ1z6IFWldBOGsbh0QAYXuMepMF9GFLTILjOfjvfO+fLU/k0bdpUrdvOPXgPzmFBKhjG9INB4J2tPt0fKig25/Rcv4Dfgq9DTeFqGYs1uPLL+j3psnKH+2qotF703d2GxTC6jV83P+LWOxxEm7m+VhOpX8Bxfgozhiw0KVZtwYccYdGtI9/RwqL2O6es5gfUaZasaty4ca5DDWrw77//rtJl6qYe+qK/jHebc+IMoEojfNh3dCuN4ZH+PPdAU9EGQdKjonr99dePcuBhmSxabH0cj0764dyD96Bbdhxu0DhCLVnF+xg0aJAyLmvQNFiGS7sH+wnfL1PNy/RTH37m5hWyP4yw1ixXWepZmxu7Du6T2ZuW23v5p1yxNLnb6rM3rlBwryk81FjZxemXrqFA497K8lChwn3hiaYJ9X0oaGHovzPhRQtsMFQIpBlqNRvAAEg/n+AObhog+WHZKlRzZ+uuwYDIUJ3bswOBI4YNG6YEPrjC0PA8I0aMUGk5h+momAoLf8s17XZn7pdevw2Wgy4CT6veuV4rOau8+4IKUzf+JZ8tGGvvRU+J5GJKg7iyWkNJTsj/kB+zEFmrDFB3P/nkEzUr7LvvvlN9UPqyqNOorE4LeTD0s/GVQBgQfjcBdoN0Ro8enTtSgFWdlpsx70ihO8I9ML5pUKlR+90EORhaZTQEVHKeicqAxTXpbkQLw4VoHJTZWExFLQjkDXf1aLxXI1nTzjOBZ5FEfrRoC1Is+HbZNBm7yn0I66TiZeSR8653ndZ6MDtLnpkyWPYczN/sv+ZVG8rllc9SnnuhWr1oCCXwBkMojukilgh8rIYSomH3wf0yZ3N4VbxJ5Xph57BPWr84ImFn9drSqSWlWpmKqjXvUOdSeaV5R7nx9POktNXCF1TYDYUX3/fh6WP5YWxz1a4tYdd6L2e17i1OCR8osMWpdeSNFnfmub1+yR0qcuyD51wtHWo3k8YVa0hKmIrEYDjeeCbwfmjdidc+9K/QUVcAV9Zmp9Sx99zhPFrvSDZa8WhdZA2GvMBPIBZr53sm8H5Y4mrm1pWSHmad95Skop5OgTUYYoUJNZUHLBb5+zr3+GVwdoUaUr5Y/n3MDYZjRaxCTXkm8IxvuvlbHwv2ZR2U9AMZUiqlRMjthOJp0jZMSCeDwU/gRFRQ56lQeCbwxxus7t0aXiUPnXttyO3+c64Oa5n3K87xaT9OPzbEBl+FmsK7Cn9olhbSHO8+PPPZT0gt6bqVSY7Pdc5Y1IFpoWzB0VkNf19iNaknXwLPDCbCA7M+Gb7bS5YsUT7Wfl3xJp7BkUmv4hKpN5oh/mGxz3DrEOSXIs2bNz9qPI0JDfg947bIsFPwkBvujc5FBLAm4gX20ksv+cK11mCId7744gs1LBeNy28knnbMeAoEb2+++Wbgt99+O+q43l588UVqALVZLXxg7dq1gT59+gQ2b96Mp67BYCgg2dnZ9qfI6du3b2D9+vX2XmgSmEwRvNGqhzquN1p35iCj1s+YMUNNjY2HUFMGQ7yAW61vQk2xyigL/rMYgoZ45H4PNWUwxAs0pG5LghUEz4blyKDfQ00ZDPGC70NNYShg1RKDwVBwfB9qCiu9n0NNGQzxBKsEmVBTBkMhgf57LOTJM4H3c6gpgyHeYEFQX0eeOffcc42vt8HgESyp7evYcvjW+zHUlMEQjxBFyNdLXDEu78dQUwZDPOIWQ6+geCbwGBn8FmrKYIhXTKgpg6EQ4ftQU1gU/RRqymCIZ3y/TLXpwxsM/sczgcdJ4JAdXNBgMBQMwmcVNAJwKDwT+K5du0YcpNBgMISHFY5i4arumcCz/lbAB8EoDIa/A77vw3/22We+CDVlMBjc8UzgTetuMHgHw9wm1JTBUEgoX768JCcn23ve4ZnAH+9QUwbD34kPP/xQ/vzzT3vPOzwT+OMdaspg+DvBzFNft/AGg8E7CDVVr149e887TB/eYPAh27dv90+oqVCYUFMGg3fEKtSUZwI/fvx4s6adweARJ5xwQkxmn5o+vMHgQ26++eao4spFiunDGww+xFehpkJhQk0ZDN5hQk0ZDIUI34eaqlixYlyGmmIOAAsG6s2rOQGxuu+xhDzHY77/DsQq1FQR6wc96hd966235IILLpDzzz/fPvL3gkfevHmz6iOtXLlStm7dKgcOHJDU1FSpUKGCetHVqlXLl5WURUC459KlS2X16tVqLJWlv1groGrVqmojvDYhuY8VS5YskZSUFKlSpUpU6f76669qIUXybDi2EMmpVq1aal58pLz88sty6623qjiPbngm8ISQZm36UqVK2Uf8By3tokWLZPTo0TJnzhzZtGlTyFV6EA5UqiZNmsilLS+TihXyXkyQeQT4IjB+unz58pBuxggbkyL4IVu3bq2CdyQmJtrfxgae+aGHHpIyZcrIY489pvK1a9cuVcFRsfF3xYoVKl+VKlVSleCWLVtU5JPBgweryonKj9VXqLyWLVumClS4QmUoOMyHp3xceOGF9pG8iUTgE5+1sD/n8scff6hFKfmxI2X48OHKFbBEiRL2EX+xb98++eKLL+Tdd99VQo/PQIi6TkElgKfT3IWLZEZWmqRZfalKpYpJYsLRrSP3WLdunbz44osybNgw9RkhcgPD5po1a2TKlClKuHhnaBaxYu7cuUpIWUL8zDPPVP4Ss2fPlvnz56sKCNvLtm3bZMiQIaoi+u9//6sCihDIEEcq3hMW47S0NPnyyy9VJclztmjRwkQLjiGsD4l2xXuPlMmTJ0v9+vXDNrqeCTyFo3r16jFx+C8otGr9+vWTkSNHRr52fmKSpDZsIUUr15a5G3bKtv2ZUuvEUpKceNjsQcUwbtw4dW9i69GaRgrXovLjTYWg0QJHAhUMz4MWQddh48aNyliKkAYLIFoHs66ysrJUJYTmwrGGDRuqJZC5HqGnUJEPuh183759e3WM/KHp8ZtyDwpUnTp1VAWFBlC8eHE7JYPXRCvsEInAe2a082uoKYTwpZdeUi1bNCRVPkPK1m0sRRIS5VB2QCYv2ySP/zhb0i3BBwSPrsErr7wia9euVceihXvQtejTp09EftNUErSu//73v+Xhhx+Wp556Sp544gnp1q2bdOnSRU1Rdmot2CY41rNnT3nkkUdUgeAerE7EfRBaNA1afFry0047TbXs5IfjVAZsCQkJ6i9qPa09FUE8rl/Iu3FuGue+8/jxhFBTdBG9xrM+PMtUs0pHtLVSrPnqq6/k/fffj+KHLCJJVc6QE5peJ4nJR6vatU8uI13OO03GjBqunjmc+h4pCNRVV10ld911l6uajCrN7zJ9+vRcTQJjIJ8RYqA79c9//lNuuukmZRtA60IDoA/OeQjqpEmTVH+dFoTjdF3o0zMdE3dOtAeWKuM7KgHuSatPHkmP/j6/cSwim8aaQYMGqQoWWrZsKVdccYUqF9OmTVMaD10snp9yfLyJVR/esxYeJwEKhp/A+IQan5ewU5hVK8ZWrLiUaXR5SGGHRevTpccHX8onn3ySp7Dr+7KFA2H86aefVOsaCvKPUZQFETgXFbtTp07y0UcfyXvvvacijVJRoNoPHDgwt2VA9UZwgTzwmXMvvvhiqVmzphJgRiX4jAAj9Ayv0tfnM0KAwLN6KkKOCo+7ZzwKO9CFQZth27BhgzqG5sJoDN0dbDt+WZcxVqGmPOvDo+L5aSwewUDlnjhxoqvAIxDUotT0l156qaXi1paks5vKweLlJNvlmozVi2TzmK8kO8vdFoCw0E/mvhi3ECAKFK00+QoFfWQEuVGjRkdVELTAn3/+uWqNablRz9EIEEYEEW2MAky/nmfluc477zzVwlPp0VJTGZMvul2kgxETlZ/vqLj4jmvJo7bic4w0uS/H+W3d+u1cS1q0kmgVaB2khUBpeEbuQ5qkTz4RMIyKznvzjjBsahsF3R3y4hbZiLzSreIajF2cx701pMt96KZo7zXsTZRx8kfZpd/L70Q3x3nt8YJRomgN4JH04T1T6bX6l1drdqygENB3pQ8bCgoX/V5sD86ClHkoW35ZvllGzF0jew9m2UdzyMzYIVt/GiSBnVvtI0eD8Y37Nm/e/IjKj/xgR8AK7uaRSCF89dVXj7KFYEXv0aOHKtTkFbsBhdMJqiraDGAExHFj6tSpMmDAACWM9L+pKKh4AC0A7QBhoOV/+umnVR6ZE4HAU3ljvON6Rh4AbaBdu3ZHWegRSDQQxu2pIBBYKiIKHyom9wKEjqFB0kTIyCNqNhXF/fffr34LBBLtiechH4CwY19gQkmDBg1yyxjPRQXD+QsXLlTvlXyRz6uvvloNfVJBUhE8/vjjSl3nGYHfn/fM81B5+g3fq/T8cH4KNUVh0WpbMBQYCkSrVq2OajWKJibIFTUryr1Na0nZEjnCAQd3p+cp7BRKBJb+oVMgAEFDnW7Tps0RrZ4TWlxavmAomDjNAKMMr732mup3OrtQrHBKoWZr27atei7uhTDhZERL6qzbuTb4OwSVyoVjVJR9+/ZVrSwCyvkITv/+/WXmzJn2XXLeM+dhCERY0So4n3v/8ssv8sILLyhBA1p9nSaCim2FyoR7U0h5/t69e6uRDyoOnpuKgwoFNZzv0D41vAMqMVpunoF3wzNjZ2D4lfuTFzbu53xf5JNj/C1MeCbw/PDaeOQHtKoaClQ2onO6Ob0gjrXLp8ktjapLWvFkyc48IDunjwkr7BTYe++9V6libiDoqNrBlYGGFipUnqksaA21ZRzBo/A/88wzyjmGsfZQFUVBQEhQeWnx2ei7k3/SYcxe/9YIG2P5VBj0+XkHjByggXCM4Upa4OCuDPchDd2K0X2cMGGC6j4A2iWjK1QmHTp0UL8Vgo+/B0LKe/r666/V70y+cJJ68skn5c4771QVBcKPxkPFhYbRq1cvNaSoadasmTrGdX7E96GmsDD7aaiG2tytv4wA5TXuTSPc8OSy0u7sKrJz5ljJXLnQ/uZoipcsJY9ZLauzQLmBAcytoiG/buo+LTjOPXjHacFD0BAmBKx79+5KrXV75vxw3333KfWdwkdLqrsaGBdJC4HGtoDgolHcdtttSj3GKIhqqUE9D34uKr177rlHCR2Cyr3REHT+6UujMVGBXnfddUr1vuGGG5RKzzmMOJAH4JwHH3xQpXv99dcrDQsoA+SVLgG2EWf5pILmWDj193ji+1BT/KBOlfF4g9rupjpTYCikeXHIOmf99AmStWS61WF0EaSiKZLUsKX8nlFU9mbmreGQrptQkl83xyWehz4+Qk9/l8JNYeUaWjtaUsblafUiebZIQFA0uN3qbgW/86xZs5RajhEOqMRoVRmnp9VHbddQNpzqNHA+gkpFgfCzj1Vad7FwUUYlx+5B14zhRhoVhhzpfzM8qbUhjFRUKqSLbcKpaaK2xyO+DzVFTe+XIQ2gULipzrSO2hDlBoUaIxRDX67eeZawpda9UEqeXl/GLdko3y1aL3lVeRje3ASSwu4UslDQp73yyitVq04/9fnnn89tCVBv8axjrD0WOKdrItD09zWo2XgcPvfcc2p788037W9yKti8GgMqLmwc2lDMvYcOHarUepyM0DacBlinfQY3Yd6DTnvUqFH2Nzl2A8NhPBN4t1breIFguM12Q4CxKmNACgX2CBx2sGKHE/ai1c+SMnUb5+j/FuMWb5CBM1bKlr2hbQdUiD/88IPru6KbEWpICGMWLSobBimup8WncqAPjOWfcVvgOwxb5NtNw8kvTuGhctLWcqCFZl4AKrfeGJpk47huucNBBY29AMMjBlXUen5DnoWKkuP04cmHs1uEw5AzXWfaWiuJN0yoqShBGNzW9dYqKeoxAkTrRKHiLwYxjn/wwQdh3V0TKlSVso3bSILDQSfrULbV0m+Q1ycukQVbdsl+S+XU90XlZujLaeEORju/BIPDDcNZbAh3sHpMReEcQmW0BKFwCqQXFbKzRUerwGNPVyrYRTDY4ZYbvNFHpwIOB78Jmhf5xrBJn5xhJkYk6JOTDt9/9913Sk13+ohQMWDEDJU2ffpQeF0Zeg2y5Na9KwieCTwGlOCCeDyhtcCZxs15gQKGiogfOoWL1uOBBx5Q/USEMpwKmlC8lPLGS0oJrX5v3L5bnv3oK+n24MPqvtwftZR56W73RTixVof6kem700IitDipUFk5NQ8EQRuwgFaRFhBDmC7YtJC6P4tQMSaeVyVA5Ud+2RgJoM8O5BWhROi0PwCVGtZ7uhUaygOTcpx5dYNzGcLr2rWrUt+piNF26Oczd0BXGMw25FwMbtrBhCE7KkWtgZBfKj0Mdm7vm3y6fecHaHBiEWrKM087+o5YqaP1Dool1JIICBZdNygkqNoYnygkeRUChp66PvCwrEksKwezQgvM3g0rZMf4b2Tn1s3qvtxfF0Y3EOrOnTuHbOERYNR6hqwwVGGY4rmwQ1A5YajTbrdUdFi0MYCxjx0CAWFDy+Bd0McdM2aMOgaoxHgFYlsYMWKEEl5AyKkYSAMbjfazQNgwoiH4XItxCaFmzJ5KjXxRhmiNqQRwhMHijpAxVKbziWOM0xJN3ngOxu2xESDQvD/UeNxe+W1wAyavpEt6bKSNkxHp8oyM45MunpZNmzbNHV3g/tqXnufifGw92jHIT/DukT+MpZFyTKfHkhh9Jj8JPAWSPhzju6HGt6OFgoMW0LTx+ZJWIkUWbNppCfKRFUTWgX2SPvFbkYzInZC4LxqA9nsPhtaayhSBoZAikLTYFF5aMT2cxX06duyojF88O78F3RKEkO+xWaAJcA9+KwQYYXETeFpYWk+ETQ+rIaBoRbr7xl8qMwSN6xEkjGiko/OFdoL2Ql7cBJ78MuTIc7FxLb/b2LFj1epBCDtpaV8HfT7Pz3NQeaEVkDbnU8lyDv15LTQ8J67WaESUBypNKlPsIH6DChIZdNoq8uKYCjzDRH4Sdg39W1o7CobbGHckcA9WjqFwJFhqcuW04nJSqVRZtT1D9h7Mab0z9+ySrb8OkcDW8CMATvhxbr/9dvX+KKBu0Eemn44KjWCzz/tGYPituJ5xcBxJdCHhfhQA1GEEgtaMCpB+LbHLEEBaX1xxqQAQfqfA45rMvbgP6XAOji04hOiuAt9jK0FDAYQbIeK+pM0YOkNpdFWoEGi5yS+VG8+jW1/gmdAeEGzuzzXknfNxVWbCEHnVaXMtfgL8pRLh+cgnFYJ+Hxi+9HvlPO5Ft4C00Na4XyzWfy8ojEKQ77xGbZwcU196VCoS88PEg2B4RFopDIv5aekp0PiyU0Cc8Oa2ZOyTd6YstgR/r2yZMkIyl8ywv80bhIM8hfP6CwUtKsKjuwlcS4vpdg+EAWHmfM4hXYSGfd4Nn7me0QnmAdA6Ak49GOa4lvO4ji0UfE+e2PhMYdV50gKqz9Hwvf7OCeeRpj43mueDcOc7703aPA/n+g3f+9LTb3IabPwEPywtI3YGWjc0F7fCo6EgYP3FiIQxKVjYgbJ6Uqli8sgldeXammWkZkpWnoWHvKBaMuz0+uuvqz5mXnkJhvNpoWjR2Pgc7h4Inz6fv+yTD/IarsDrc2hluNZN2EELjz6Xip9rOa7R5+jN+Z0TjtO65+f58jrfeW/ymtfvdbygjIRrqfOLZy08Ps+oXLpv51d4XFoy+nqor/RRdcsAFBTUYtw4UTujUalQhel7suIoFSAtiYaCRr+MSTu8V1RPCqqfCG7hBw4cqFRzw7EHrYUy41YphiKSFt4zgY9X6NtS0PlLzY8ghmtNIoVKBMGhEqA1o7amVfEzaGgYJbU1Hk++UJqNIfYw8oGxMZolwo+pSh+voaYQcr1EM3+9EHbgPtwPIxGtpN+FHcgjTjLaaYXKz3B8YK4A2qLXeCbwJtRU/EMlhbWdsW69BJbh+EBDEYvusWcCTyvmVwOIwRBvMJyJn4HXeCbwuD8aFdBg8AYmd2FY9hrPBJ4M+nVYzmCIN/CGxJjsNZ4JPO6b2kPLYDAUDDwA6cd7jWcCz3zsaMasDQaDOzhm4SLsNZ4JPBM2nH7RBoMh/+ADEYtQU54JPGGX9HLEBoOhYOh5Dl7jmcDjJKDnVxsMhoLBzMRYhJryTOBZnjgWzv4GQ2GE+RyxcGv2TOCZZ42bqsFgKDi+X6bab6GmDAbD0Xgm8DgJOKeZGgyG/MMKP74ONcU8aj+FmjIY4hlWWYqFq7pnAs/U2FgMIxgMhRETaspgMBQYzwSeJXkMBoM3EGrKLXJSQfBM4HWoKVxsGT9kMg2z51h5k41ACqyjzgILLFtMBcEMO85lOWQgrBD7AwYMUPuEE2afSKLAdexrl0NnWiy5HCotAiZgTAxOiwUkw6VFMAe3tFjog+WUSYu13kmL9ep0WgRg4FzeCei0iFUHrK0eSVpEbdFpMVeBtAhQ4GVa+GznlVbbtm1VWsOGDVPnsoIv/Oc//wmZlg7mqNPSqqkzLbqAodJi+exwaRFqC4hO40zr5ptvzjMtnFlYJpsly3VarF5LoItQaeHeCvlJi/XwdVo40ASnRXhveOONN45IizX/2ed9xMJVvdCvaWcw/F04pmvaGQwG/2ME3mAoRBiBNxgKEUbgDYZChBF4g6EQYQTeYChEGIE3GAoRRuANhkKEEXiDoRBhBN5gKEQYgTcYChEhfem/+eYb+fjjj+09g8EQDxCenAlo4RbOCCnwBoPh74lR6Q2GQoPI/wPPWvP1crxQJgAAAABJRU5ErkJggg==;" vertex="1" parent="45">
                    <mxGeometry x="680" y="60" width="200" height="162.7" as="geometry"/>
                </mxCell>
                <mxCell id="36" value="" style="group" vertex="1" connectable="0" parent="45">
                    <mxGeometry x="30" y="55" width="160" height="170" as="geometry"/>
                </mxCell>
                <mxCell id="17" value="" style="whiteSpace=wrap;html=1;aspect=fixed;fillColor=#f5f5f5;fontColor=#333333;strokeColor=#666666;" vertex="1" parent="36">
                    <mxGeometry width="160" height="160" as="geometry"/>
                </mxCell>
                <mxCell id="19" value="&lt;img alt=&quot;&quot; src=&quot;data:image/png;base64,iVBORw0KGgoAAAANSUhEUgAAANMAAABGCAYAAABWrKEpAAAAAXNSR0IArs4c6QAAAARnQU1BAACxjwv8YQUAAAAJcEhZcwAAFiUAABYlAUlSJPAAABtzSURBVHhe7V0JfE3H9/9m3ySRSEQSsWaz1FaEUmLpSsvv91NL1dJSUUrsqtrSUiW0VWspYtftZyn+aq21rbaWSkIICUkkyB7ZX5L3nznvvpd773shlPvi97lfTu6cc8/MmZl3z8yZe++bZ6FlgAoVKv4xLAcMGIAdO3YQs3btWnD++PHjxEdERBAfExOD0tJSvPfeexg5ciRu3bqF27dv4+2338b06dOh0Whw8eJF0uV5OE6cOEH8mjVriN+5cyfxldlauHDhA9tasGAB5b2frXXr1lXJVmpqqsRWSUmJka2TJ09KbO3atatKtqKjo8nWjBkzJLZGjRqFadOm/SNbx44dI15sq6ysTGLrzp07EluXLl2qkq3t27cTL7e1aNEiI1sjRowwq63i4mKDrfnz51PeU6dOEf/NN98Q/9NPP0lsRUZGVslWSkoK2QoLCzPY0n8OeqgzkwoVD4l58+bh/fffFzjVmVSoeGjEx8ejUaNGAqc6kwoVjwyWwlGFChUPiA0bNggpHSTOVF5eTou6u3fvCpL7o7CwkG4KPAjy8vJoMa5CxZOM9PR0IaWDxJm4I23evJnuoFU1+jt8+DDdhaoqeLn8DkpSUpIgUaHiycSwYcOElA5WcXFxs+fMmYPAwEBypG3btqFly5Z0i5Dfcvb09KTbq4sXL0bTpk1p9ho8eDDphYSEYMmSJeRQRUVFpJOYmEi3Hdu2bYuzZ8/ixo0bcHJywtSpU7FixQqyw/Mwu4iKioKbmxtsbW1J5uHhQbc5eT53d3e6DcnttG/fnngVKqoTeHRlZ2cncMyZ1qxZM3v48OE0u/Tr1w/BwcFo3LgxhW4zZ86k++lvvvkmevfuTRc/D9H69OmDd955h5zE2dkZr776KoV7Pj4+pHvkyBF07twZaWlpNBPxsvv27Uv3621sbMgw92r93RAXFxecOXOGbOfn5+Ojjz7C119/jblz56JTp0744Ycf6GhpqS7xVFQf8GdXfKDXw7JOnTqwt7eHtbW1INKhYcOG5Aj8YVb//v0xbtw4cpjQ0FBs2bIF48ePp4eOYvBZRwzuiLyMzMxM8mBHR0dyODm44+rXULw+PA9/SDZmzBjMnj0brq6uNCOqUFGdIJ6VOO451POLnD+d5uHZoEGD6ILfs2cPOVZ4eLiRM+nBnS4rKwt//fUXPQHnIVpCQgJiY2PJOcSOwWetc+fOSRZzfAYKCgoi3QkTJiAnJ0edlVRUOwwdOlRI6WA1a9as2dzDrKys4OXlRWEYXyc5ODjA29ubLurVq1ejY8eOqFu3Lq2F+Gsg169fp3CPz2r79u2j9RTX547j7+9Pr4TwNRVPP/3009i7dy/+/vtvTJkyhfL8/vvvFFYePHiQ7DVv3hz16tWj9ZOvry9atGhBMyAPBd99912a1VSoqE7gkwlfouihPrRVoeIhIX+dSI2dVKh4SIhfJeJQZyYVKh4R1JlJhYqHBP+6hxiqM6lQ8ZCQf59JdSYVKh4SrVq1ElI6qGsmFSoeERR1puxzq4SUFBYWFtCyf/w/Y2ChE9ObEI8Szs0Gwcq24rnA40L+tX3Q5CYKXOXg7eaQt/1RtLtm6zAh9XhRkHwKJWnRAlcJTHymhrb/w7ZaO/uihn9vgVMWf/zxh+R1IkWd6cbKztCa8asXfqP2w8rOVeAeH3JjtyPzoG4vDHPA1rsJfPpFCtzjReavy5B7ZrPAKQ/HRh1Ru9eXAqcszPqcibttebmWSFvOeEaV8Y9Dh0Z/JXCPdpqSPWod5YZHBjN/poq2VYZnn31WSOmgrDPpO0DUMZXxYhksrGHn0wR2fi2I7P1aGkguE/OWDjWk5SgEbkneBj1vSibhWWbrmt6AjW3lOpXIDLyCFxi3dd/6CLxYBgsr1k4vStt4+cPC0rrSfHJeIlOwrXLInUnRMC9+aWeUC9/KNcTQwpGD1gu6JEGvY+/XBt59IlBeXChIqgB6MbYc11e9YiinwZgDsLJ//GFezqXtSNun29aKo7J2yWUWdk6o2XEwXIJeYZwW6UcjUJBwFuUlBQadqpRj69sUfgOUCfMyTixD1p+bKF1ZfSQ8WytZ16gFjxdmsJC7BpK3hKEh+1yK7kQh/VAESnPSWAbmLQz3LEc4OgY8A+9XzBPmHTp0CD179hQ4xWcmPrroqGK0kcrkPCc+iuVc3IGEVb2rTElb3oClrbO0HKXATMnbIefFMlhawaXdINTpG4Gy3DQkbhqCm9snsNm4FXxeWwLXtgPY5Gxz33L0MiWHaz4W368++rSlgzPcQ8Ph+eIHyI87htLCHJLz/sq7fAC1X/4EHj0ns9HA7p7l6HlOEg9TGPwGhBiKOhO1/WGID1QsYSS/D9FFLeYVgtjmvYgPEnbewfDuuwAO3q1xa8+HbJTfjtK7WSi+dQ1ph5Yi5af3YO/dAr4DV8EpsDMs7V1MliUh3cCuGEzWQUQWNg5wbBzC2vk5m2XzkLJjOvKu/QZtmYbOc+Qn/ImkzWHQ3L2Duq9HwimoCyxsHY3KMiKF2yrGyy+/LKR0UHxm0o8oD0JF6deQe+mgyXP3ImZRwnOJUhDbNUVWLh6o8+pcuD8zAumn1rCZaBpKstON9Eoy7yBl5/uMZsLazQ++fKZq1x9aK2sjXQMp2FBuy2QdBLKu5QPffl/BKSAUqXtmI+3oajYjFZITaFmwxnWoHK5fVo70k+uR/ONEONRry9r6FWzr+EvKkxN3KHNB/tBWWWdiDdcTXdkmeEtbe7h3GMjCGjta3zgFhECTyy6ykhLY+wSTjnOz7pTH3icITv4hJJOXQ8QPMl4JaLUWJuvDeSsnd7i1e43F+fOQn3iWXTjvoTDpIru46OoyysfT5WXcqW4i89RWJP93CmxdG8D33wvh0vx51k8ORnmIlIJgW2qfrYtc68CzaxjqvPAh0k+vZ440H8UZyQYdiT6HIOMDriYzFbf3fY47x5bDq8d78Oz+LmxYeXo74ryUNhPM+jqRrrN0xK8dun5kPNjU7tFpLAsN7FmM7Q7nwB503q5OMBzqtiGdmi3+RTJ7n9aoEdjTZDnsM9HZFMmUhFF9GDkFdUL9IWsBtv5J+m4SMk9/j3JNqURHnk/Ol2SnIXXfAqSdXEUXqq2nv3EeBS8wU5+pc8sX0GBIJIqzk5G4LRx3Y08Z6Vi7+bCB04nSHA5+bYx08uPP4cbWsSi4Gc36bR0bhPoZ6ZgTZn3RlTqC9X4FiXmeBlyf6s3W47bw6fMJ6rw0FU4NnoHfgIVwb/sGXFv0obSdZzAda7bqC0e/p2HjXs+oHG6LbBpk/I9O9tgh2BPXp1anoXANfA5J/52G9BNbUVqQK9KpqGPlMl05NjV9ULvHGHh0HImUvXNQeDNGpFOhpxiM6qiFV9cJuL41DFln9qBM2AdETzZu3vDuNQO12g7G7UOLKU/8hiHsc2yHuv3Z2rFeC5Lp9cuKC5Eb8wviI4fAoX57g1xH3KHYHzNh4MCBQkoHZW9AUJyrG1F0I0wF79QoBE1n/Aa3lv9C1NwQXN8YjoT1Y3D5y97sg5mKuJWDcXXFADZSTUXsoudIdnXFQBYKLEHA6B/RbOafsPXgozTrZE5CH+tscZmOVwK6D1lsm11ELExJ3D6LjbJXDPWp0JH2hSkZT7u2eg6N3tqEkoIM1v5JyL18nK2fXmWxI18/VeTRt10J8ItaXEdqV0kBNHfZYCHI9Oedm4ai8ds/IO/GaVzfNpn1xVU6X5yWgps/fYrU/Qvh03s2fPrOpsikolw2I2elozQvTSJTuq1yyL8cWG3CvLz4M4j96iXkJZ2hTpIsMgWSy+jIykzaMROXvnweRWkJTCaUK3Sy2JaSkLeTRnCZrDJeLIOFJVya9US9QZ/DziMYV9cOQ/aZ3fDqPprNzovg2W44m63YekKUh6eVAu9mozpzGTuh5y1s7FBvwHzUaNQZcasHIuvcYaM8nIrT03B19WAUsDWk32sLUSOgo0THpC3hczYHNm7cKKR0UDzM0/WIMZFzaMrpaOr8vUjLFujlGu5gIjlPc4j0lAKZEttlRM79IAQL2Lh4wrfPTHh2Go5bR1bi1v7lsPNqiICw75mKFgmRY1F0O8F02UrBlG0ZWdk5waVxF9w6tBTFd5JM6uiprKAAGb9/h8yz/4VT/XYmdcTEb/aYC3xfSDEUn5nEs4uY7Lz8UbffJ3CoHWjyfKXEyvR4dhj8+s+FtXNtiZxDrKsYTLSTQy6rjCydXODV4x349fsUuZeO4+o3I1CQHAeP0OFwDeqBa5vGIfXAKtKlcuX29NOyAjD1mXLrEplQHd1sIpLfi1geeTm6MkQ6jHiYaS7It/pSfGbibedUs/VzaDB0MRq+uQw+r0xk8fNltg6YhoJbsQadqhDv8dtH1iBh82QUZ/E90kXn+GkZrwhENh+ULB1c0PD1xbCwtsW1DeORFXWULcKL6BwfaHKv/oHC1Gs0g3MZQdSvelIMMrt62xKZECVIZFUg/kcukxN5nJnAt6wTQ1Fn4iOmfkTx6TERaae2IXn357hz/Fs41G2OgJFr4ejTXDLy3I94h/q+NBGBb0fC1s23Qs6IbAo8J6Wgfxgpty2XmSJ77wbIT76ApN1foLSwQHKOl8JJImMCdjCSKQXdDQgpcYh5mj34fxO6lRFlYSSXiXkiJjMX7vmTMo8dvOECWVrZoCg9CUW34lGckcJmpljEfzsFhbevSPTuR7yDU49+g2vb+MyUijo934L/iOWo95+PkR130khfEchtMuL1NCWXE10wJcVGcjrHDzIZQS7TyxWAyXZxiHjS4Uk+Q4nk9yMLK2upjEPMi+VmAN8wVQwzrJl0RH0g4vnziKLbKSgrKarQYecleQReLONllGRloPDWTZZXw2a575Cw7QPEb5mJeHYU51MK3JS8zvytALlMzuv16CDwYh3dCWOZXk+fh+QKQlwfsi2qB1G57iaB+M0QeR65jA+Mbs2eh3tIH8N5U33IxeaC/CdllA3zRJ0g5x38miEobDWcfJsbZPKO0/NiGae6vSYgeMxa2Lr7QlOQj5LcLGjysuntAnE+xcCM6utWYdtYJuf1MrnD6HWoFIHXy9hBwpNM0FUC8voY6imkqT78JJexY4VMmkcuK0y9jovL3oCTd1M0GhIBp0ZP83DGKJ+SbZXjnj929rjBO5M6lPeGwPM0P+Zdj8bFlaOQlxRlkIlJLNOndUcgcc9ixCwfwcLGZIOOWE9PSoHWTDLb3LyxzHS72H8jmZWTC11Y5ZpiSR5ujR4riGRKriN4FcS2iZhcLCvTlNCD5ZotehpkRnlEMs/O/0armQfh2eE/SNgRgaT/W4bGAz6FS8MQiZ6ezAXzPmfiHS8aTTivH8FsXL3g0a4vbPkLjYJMTJKRTnTkoYNL0DPwbP8v+nqCXkespyfFIGqXnriDyWUkl6X1z030Mksbe3h1HoTGg+Yhcd9SZEYdlebhtnj4JJLR1awg5O0imfBZcyrJzcXZeS/C1tkLTcdtQJ0ub7B28e8sVehY2jmhdsd+CB69CnYuvri05h1qV/CoFXD0DsK5z3rj2ncfka60/eZ7zsR/dkkMZZ2JNZ4+aOHDpkFFICsHF7j4t2UdXpvFyp2qTI51m7HO9odrQDtY2jpWlG+KFAKZktvmZMG625RcTIY+smADiyeCRi6FS2AHXNkwFel/7aO1pUSfO6mYZ0S8QpDbJmLttLCwkshKMtOQuHsZiz5Gw9EnCE9N/A41g0NgzT53t6Yd0HRsJJwbtELchmm48dMS3L12AUl7V+AqW/d6dRqAwDe/QNGdG5IydcT/mAdmfTePt1s/ovCOEI8weUlx7IKZieRDaxA0dDFqNGgNl4CO8HthHI1Mtdv3Y506iNIN+sygo9czA+FcvxUur5+Oy5EzUJRxy1CeKVIMonbqqbQwD/6DZsPOo67ROQnxfmFk5VSTLqCbB9chds0kaPL5bXKprluLbnCoXR+lbJ0olivtTGLbnLLjfmdh2WwWMXRg5ytuGnDi32W6sulDxK6fArfmPZgTfQPXJl2Z7H1c2fgBinNzJPol2ZnIij0Fl3qtaeAUn+OkYFONwH9vTAzFZyZxnMsP4tiXU078eaZXipu/bMatEz8iLyUWiT+vRUbMUWRdPk3posxkOmbF/oaC2wksjMg0KscUKQYT7bq+eymyr55B4NAIeIcOhDVzFrmOjig7G9xtUFqUh8yLv6K8lN9IEc6zc7bu3mjUfwZ8Qofh4ppw1h+6nzsVk2Iw0darW+fgxv6VqP/SOASN+BwO3o2YGp9BK3Tyk+Nw9dtPcW5+fxa+zUf+zTjJef6iqytzxqfGb4C9ux/+/OQFZFw4JtEhYteUucB/u1kMRZ2JRhKBOPSdISZNTjailo6C5u5dFGakIok5DZdnXDiOtD9/pvS1HyLomPbXAST/vM6Q976kM/vYwe3IbZdrynDr5E7ErHyXOYoVmo5ezpzqdf4wRapLF6eO6Da5+Bwj766D0GzUUuRcPY/oZaPZRRhvpEN5FQLVVW6fUe7VaFxYOhI3j2xCwz6TqM72nvVM6srJuVELNAtbitod+uLKllmI2zYHmrw8k7pKtlUO/kPqYige5umJeKEzxFSm0SAn4QKNxvw1moLbiSQvycmkTnb0bYT8lGskK85OQ8Ed3fmqkGIwYVtPxTkZSDqwGZc3fQBnv6fQ7J1lbAQOYVks6bzOEytCGH0+F/82aB7+DZzqBOD8l8Nx54//YzNXoeG8nJSCKdt64m9wZF85i5jVE5Eecwz+Az5E/VfG6JxKrs9mLkefADTqNxX1e4Uj8cBaxK6djjw2g5WXlhnrG8h8NyB69eolpHRQ1Jn41aEfUYg1MfLei2r4BsHGxcPkuaqQUmDNNGlfTPnJ8Wzd8AEbdT9F3R5D0XJiJOy96qOch0OMqBAGSztHBL+1AA37TkT89/NxZetcmrVNlaknwxvzCsFUHcRUVlSClF++R/TKcBSmJ6P5mBVs3TuOtibQ6wS8/iGbvb5iofwfiFo2BpnRv0nKqIzIo8wE+e5Eiu6bd3xCe92rMgztP97NwrSf2cI6m/iqoNZTzyJh73IWQkQJkgdDp0XHYeP4+PfNSz29C5c3fCRw9wffxssr5BV4tu7OGAvcvR6NlBPb0XL8SmgKcpERdZytIbcY+u5+cGncEm0mS5+BPC5c2/kVm2nXCVzVYOPiDp/Or8G9eWc281yCc/3mSD9/BEkHN0JbWiJoVQ0erULRnDmhOSDfHllRZzoW3l53a5fB3sMbXh10WyXxCognaznPwWV8Y5Xbp/agvKxMJ2TQ6+kbIec59LLOXyjjTCmndyI2chal71UfeZ25I3mGvICcuPO0K1GtVl2QdfE067PCByrHxb8lnp6ikDPtWIwb+3UbXlZWn8rqzDekdG/N2njhV+ZEmkrz3ascj9aheCrMPM504sQJya6uijrT0XEVzmQOdFmskDP9vguX1lV9ZnrUcA1oibZTlXGmq9uZM/2szO6xpuDZphtajF4scOaF4jcgaHgxJykFU7YVIkWXETLbyhP/Yx4cPnxYSOmg6Mz099eTUF6uC9Eqm8o5jGV8UU7LcgPkOlUpp9mwT2Dj9Phnppu/7cKdc0co/U/r/DA61s5uaD5ktsA9Xtw8tRN3/v6F2ebWdTV5mDpzPIyOc/0maNxrtMApC7OumVSo+F/C+fPnJbu6qs6kQsUjgrLPmVSo+B+C+mvrKlQ8Isi3R1bDPBUqHhLXrl1D48aNBa4azkxLVqxFszahRG2eeQEnf/uT5Id+OWGQ30zhX7XQ4uN5XxA///NlpPOkQKPRYOK0WYb2dO7Rl9rEse2HXSTr8XJ/5OTk4k5aOrq/9JpBd8ZH80jvScLQkeMN9e/y3L+RevsOSktLMeX9OSSbMPUjaIQ34+fMX0yyYW9PQHHJg70NoTTEjkTgM1N1wup1m7Xx128InA4xl65oFy9foy0p0WiLioq1X6/ZqM3Lz2d6iVr2oWgXfrlSeyH6kqBd/VFSUqL94OMF2puptwSJDgcOH9euWruJ2nTrdhqluc6Hn0Ro2YVFOus3fW+Ur7pj0eKVQqoCO3f/rP3l+K+UvnQ5Trv1+x3aM+ejtBu3/kCyM+cuaD+N+ErLBh7iqyM2bNggpHSodjMTqxMyMrNpRE5Pz0RZWRkuxl5Bz27PwsbGGnZ2tggbMQROjo5oWN+P9AuLiuDoKN0QsLqD79uQkZFF7czMyqZ2xF65igH/eRVWVlbwqu2BUW+9AWuWZs6HtLQM0s3JzaW2P0nQaEqp7pyysnNQXFwMNvihdcvmdD440B+DXuuLenV9sHffYZy7EIN6fr6YPvldWFtbk051hFm3R64KysrKER0Ti7/O/M06NRpsJoKlhQW7wExXlY1wCGnXGo0bNhAkTwZK2SBxIfoitTPm4mUWtpaT41hYGrczJ+cu2EiNeRFL0KB+Xbi6OAtnngywKILaySn2chzKWFstWTv55yqGRy13rFwyH6ks5P35wC/YvG079Ut1hVm3R64KrK2t0PXZDnj5xR54rnsXODk5oj6bgfjFxDuWz1QsJEARG902bv0R9nZ2eL5HVyH3kwM+y3br2ona+WynEJqN6njVxslTp2mWupuXDxbyooStrzw9a+HF57th7qzpzAFjqQ+eJLjVdKV2cuoY0haODg5o2KAeWJhO57PZbPXtj7uwd/9hJCWnkN7zPUORmJTM1lbVt63y7ZGr3d28pSvX4ejx31hFbekCe5uFOh3YzPPjzr3YtXs/XWhjwoajWZNAvBU2Cc7OTpRv2qSxaPlUU0pXd/AbENM//BRJSSmwtbVhoasdZk4Ph3ed2ojc9B1zqD9Y++0wOTwMtT09sOzrSHzw3gTY2thgx0/7KEwayMKiJwWjx01ng0MepZ2cnDB75iQ4MIf6fMkqJCTcgIuLC96fOg613N2wbFUk/mZhHtebNH4UggIa09vl1RHLly/H2LFjBU69Na5CxUNj9erVGDVqlMCxMG/QoEEICgpCdHQ0MjMzERoaiq5du7LFcQZiYmLonH5Lo0OHDtFeYRMnTiR+06ZNxC9YsID4iIgI4vWb802aNIn4gwcPEi+31a1bN4mt4OBgI1sTJkwgfvPmzRJbCxcuNGnrwIEDxHNbgYGBiIqKktjiu3BevHhRYou//VsVW/qN2uW2Xn/9dSNbXbp0kdgaMGAA6VZma/78+cQ/iK2srCwjW02aNDGyFR4eTvyWLVskthYtWiSxNXnyZCNbAQEBuHDhgsQWX3g/aluDBw+W2OrevbvBFn84ym3179+fdI8cOWLS1meffUa83tb69euJ19vav38/8WJb2dnZZIt/L0lvq2nTplWyJV8zqTOTChWPCNXuBoQKFU8qVGdSoeIRQXUmFSoeCYD/B0ChOB7+bdikAAAAAElFTkSuQmCC&quot;&gt;" style="rounded=0;whiteSpace=wrap;html=1;strokeColor=#0f0f0f;" vertex="1" parent="36">
                    <mxGeometry x="14.545454545454547" y="115.9090909090909" width="116.36363636363637" height="54.090909090909086" as="geometry"/>
                </mxCell>
                <mxCell id="21" value="&lt;img alt=&quot;Python Logo - Python Programming Language Logo - CleanPNG / KissPNG&quot; src=&quot;https://encrypted-tbn0.gstatic.com/images?q=tbn:ANd9GcQfQn9VE731mW2jpeAcETJ0iJ2UEYvR80EyUsxf27JpsVUDJQtNCUr1QpZIYxHMqvXTuNU&amp;amp;usqp=CAU&quot;&gt;" style="rounded=0;whiteSpace=wrap;html=1;strokeColor=#0e0101;strokeWidth=0;gradientColor=#050505;" vertex="1" parent="36">
                    <mxGeometry x="36.36363636363637" y="69.54545454545455" width="65.45454545454545" height="7.727272727272727" as="geometry"/>
                </mxCell>
                <mxCell id="22" value="&lt;font style=&quot;background-color: rgb(242, 242, 242);&quot; color=&quot;#0d0d0d&quot;&gt;Main.py&lt;/font&gt;" style="text;html=1;strokeColor=none;fillColor=none;align=center;verticalAlign=middle;whiteSpace=wrap;rounded=0;strokeWidth=0;" vertex="1" parent="36">
                    <mxGeometry x="47.27272727272727" y="7.727272727272727" width="43.63636363636364" height="23.18181818181818" as="geometry"/>
                </mxCell>
                <mxCell id="29" style="edgeStyle=none;html=1;exitX=1;exitY=0.5;exitDx=0;exitDy=0;fontColor=#0d0d0d;strokeColor=#0f0f0f;" edge="1" parent="45" source="17" target="30">
                    <mxGeometry relative="1" as="geometry">
                        <mxPoint x="390" y="164.40999999999997" as="targetPoint"/>
                    </mxGeometry>
                </mxCell>
                <mxCell id="38" value="" style="group" vertex="1" connectable="0" parent="45">
                    <mxGeometry x="450" y="55" width="170.59" height="170.59000000000003" as="geometry"/>
                </mxCell>
                <mxCell id="31" value="" style="whiteSpace=wrap;html=1;aspect=fixed;labelBackgroundColor=#f2f2f2;strokeColor=#666666;strokeWidth=0;fontColor=#333333;fillColor=#f5f5f5;container=0;" vertex="1" parent="38">
                    <mxGeometry width="170.59" height="170.59" as="geometry"/>
                </mxCell>
                <mxCell id="32" value="" style="shape=image;verticalLabelPosition=bottom;labelBackgroundColor=default;verticalAlign=top;aspect=fixed;imageAspect=0;image=data:image/png,iVBORw0KGgoAAAANSUhEUgAAAP0AAACICAYAAAAs2u2OAAAAAXNSR0IArs4c6QAAAARnQU1BAACxjwv8YQUAAAAJcEhZcwAAFiUAABYlAUlSJPAAACWKSURBVHhe7Z0HfBVV1sBPChAC0jtIFxAVEVEERMSGrKCCqCC6lkVFxbII4or7WdZd0FVRsWBZRLDsCpZVbCguq6KIdFaQUJQOCkJCgEDKfPd/M0NeXl7Cm5cMxXf++c0vb+bNvDvlnnLPvXNPgmMQRVHihkT3v6IocYIKvaLEGSr0ihJnqNArSpyhQq8ocYYKvaLEGcV22TVr1kzOPPNMd01RlCOB1q1by9133+2uRaZYob/sssvkzTffdNcURTkSGDNmzAGFXt17RYkzVOgVJc5QoVeUOEOFXjniyMvLk59++knS09PtOmGpTZs2yfLly+3C53Byc3Nl1apV9vvdu3fbbRy3du1au23Dhg12HbZs2WL3h61bt8rOnTtl48aN+3+fZfv27bJt27b955CZmbn/uDVr1uzfj/P0fov9f/zxR3v+Hvv27ZO0tDR7bnxmn9ByuJbQsJt3rdnZ2e4W/yTdb3A/F2LKlCly6aWXumtFsTfxxzXy3gefylvvfihfzvpWMnftkgYN6kn58uVk85Zf5Lt5C6VChRQ56qhK9hhO+NvvFpgbuFlq164lSUlJdvv27Ttk9pz5UjGlglSuXEm2/LxV3npnmvxrynsya/ZcycraK3Xr1pYK5cvb/ZX4BgE944wzrMD16NFDcnJy5NZbb5XNmzeb+lZBHn74YTn99NNNvTvKPUJkzpw5MmnSJFm9erW88847cs4558irr74qM2fOtMe89dZb9nfbtWsnI0eOlE6dOkmlSpVk9OjRsnfvXklMTJQvv/xSbrvtNrtP9erV5eWXX7bHtG/fXj744AOZMGGCdOnSRYYMGSJ16tSxioBjGzZsaOv+4MGD5aGHHpIBAwbsPzeC5Zzb559/bs+tfv36smDBAvn9738vjRs3lqpVq5q6X1cSEhLs/pTBOfTu3VuqVatmt4Xy1Vdf2WsviZgt/ZS3p8lV194mk16bIkuWLDVCP0dGjvqr/PGu++VXI8RLf1ghdwy/X8Y9N2G/Zlv90zq5ddi9cvMdo+SntevsNnjT/NaNQ0fKD2krzT5r5YZbRshTz0yQZctXyIKF/5O/jB4rz4yf6O6txDsI6gUXXCCfffbZfksLp5xyit1Ot9U333zjbs1n5cqV8v3338sVV1whTz/9tPz888/yxBNPyHXXXWcFCKXx4Ycfyi5juMJB4E8++WTp1q2bFcKePXvaLu3iQFmce+659lw4ply5ctZbSE1NlX79+snixYvdPUW+++47e16jRo2y58C5n3feefY3UGwnnXSSLR/+85//yIsvvmiVXGmIWejr168rzz41Wqa8+ry8OnGc/OvV5+SiPj1l1tffydJladKqZTOpWq2KrDbeQJbRdjB/wRLZsyfLLHtk3bqNdht8PH2m1DGWv3WrlvLihNdkedpqeeUfT8qrE8aZ5SmZ+toLcuXAfu7eSjyTlZUl7733nlx77bXWouEWh4ML3apVK3ctn44dO1qLyjHvv/++/PLLL5KSkiJVqlSx39eoUcMKNNbZD//3f/8nJ554ovzxj390t+SXj7Cz/cEHH7Re8dy5c40X3MAKPR6DR69evazHgcL63//+526NzKmnnmoVU/Pmzd0tsRGz0Hc//TTp0P54qVWrhhxVubLUrFFdzju7u21rbNi4RWpUryZNGzcyLtfPxn1Pt9vnzV8kHU8+0Qo4TQNYv2GTpK1YJV06d5RqVavIju0Zxu1PFJyZ1NSK1t1HwTRqWN/ur8Q3CAYVf/bs2dbK//vf/97vST7++ONWGWAp27ZtK9OnT5d//vOfsmPHDmnTpo388MMPVsiGDh1qLTrW3mvfI+xYYyws7n60INSLFi2SsWPHulvyB7Yh2GxHKVD3EWzKmDdvnnz66ae2rQ94BLTdsfD33HOPNYih0M5/9913raJLTk72dW7FUapA3r592baNPmHSv+Qb0yb32uhoYwT21FPay470DFmx8kfZbSz8XGPpu57WUc44vZPMMcfBrG++s8ehRCpWTJG+F/Wy2wdde6tpHtxnmwohcQwlzqHt/Kc//cm66cOHD5dvv/3WBtBg2LBhtp191VVXWZe4c+fOcv7559v2M+4zLv9dd91l28Iogb59+8rEiROtu/zoo49K06ZNrdDTfp4xY4YVQJRMkyZN7O/HCkLNed9yyy32vDt06CAff/yxbeezDU9gxIgRVqA9V96DpgFxi+7du0v5MoppxRTIQ7N+/OlMuf3OP8tHn/xHtm771bRNFshH0z83WjXDCPVp0r7dcVK3Th2Z/PpbcnSj+tLAWOvxL0ySq6+81HgHNWWqacdf1r+PTHn7Axu4u/2WPxiPoZI0bdLINgvSze8sXLJUnjPHfPPtPOtJNDGegxfQUOKTdevWycUXX2yDW7jjWGrcXT4fe+yxUrNmTXdPsUKEC48g4WrjIcyfP18eeeQR62qfffbZViCxoscdd5wNkGGAaL8jpFhr3HGUh1fvKlasaF1x9kNoUQgE3/hMEwGL/euvv1prThuchX1oVnTt2tUqIAJ7CDpNEJQPXgC9BPfdd9/+AB/lecFEroEltO4TTGRbONEE8jjZiBiBdz8VxQip0+P8y5wzz+vvpK1c7eTk5jo5ObnO7DnznZbHdXVenvymu6fjDLp2qNN/4A3O+x9+6rQ6oZuzZu0Gx7T5nU7dejv/njbd6TfgeueKa4Y6e/fudY/IJzs7x1m3fpMz/qXJznEdejhn97rcSU/PcL9VFCUSo0ePdj8VT0zuPe2hnTszpZGx4I0a1Jcko0lph2/YuNl+TxebB+18IvlffPWttGndwrbbaaPXrFldpr7zgWzctFm6mvZ8uOuSnJxk2vH15PdX9JduXTvJL1u37Q8IKooSOzEJfYpxm1JN+3v9+k2SZtrrv2z9VebOXywvvfy6dUHmzlto3R04rm0rSTau0AcfzZCT2p8gqZUqmmMr2sDcd3MXSkZGplzc53y7r/EW5JGxz8kcsx2Xf6v5XeNJyIpVP0q9enUiujOKovgjJqFnYM2Ayy6SDGPtr7txmPQfeL3cNeohubRfbxuk27ptu+zJyrL7Nm7UUJo1Pdq0TSpK51M7WAVQrlyytD32GPv/9C6nSL26te2+QDT/5tv/JH0vu076DRgsVw++QxLM3/Dbb7RtfkVRSkfMr9Zy2OIly6wlJlLftk0radKkkRX4pMQEG3gDO2Ry7XrZvXuPtGze1Fjr/C6H7TvSxbTvpW6dWlLfWHEP9lu2fKXt0tuVucuOxGt3/LHSsEE9DeIpSgkwoo8A4o033uhuiUyp36fn8CCE0Z5UQL+tKL9FohV63+69k5MlTl7BYP/AhNLJlZxtS2T38jclY84jkv71g5K5+CXJSV/t7qAoSiz4Fvq9G7+UHf8dLjkZjCgKbtTMvi3zJOObB2VP2r8ke8sc2bdxtuyeP1Gy1nzq7qEoSiz4FvqUo8+Sis1/JxlfjpL0WfdJ1tpPjVHe535bdpSv21Fq9n5TqvV4Uqp0+5tUP+cJSUhOkcTUgqCfoij+8R+9T0iSlCY9pXrPCZKzY7VkfP6gbHv7Itmzfqbk7U0XycsxDkDB+8L+MJ6Dceud3CzJ27VJts8cZn57kGT9+Ink7csUSRIpV+s4d19FUWKhVIG8vL07jLs9XfYsf09yt/4oiRWrSFKN5pJUtYEk1zhGklLrSlKVJuZ/faMrIrwoYJRD3r4MyclcK7mZ6yU3Y71px6+Q3HTzOX2jJNduKaltL5MKDbvLru8nmybFCqna+UFr8RVFKcxBi95DXvYu2Z32umQt/UCcPduNLOfPFGJJTDRCmiwJFVIkoXwls56c7wnk7hVn7x4j9FkiOe7+CQmSkJgkCRVrSGq7y6Vii4uMskixgcMdM4ZIlS4PSVIlfdtOUSJxUIXeI2/PL5K97XvZu2mO5PyyRHK2r+dVPPfb4jCCXjFFkqo1kXJ1TzRt+ZOlXM22klghv58fHKNUcoy7X65aC7OmXXiKEolDIvQFOMb67zGWfLtkp6dJzq/LJS9zs+Rl7cq38saaJ6ZUlqSjGkqyEfDkKi2MkFdxmwAq1IoSC4dY6BVFOdgENjhHUZQjGxV6RYkzVOgVJc5QoVeUOEOFXlHiDBV6RYkzVOgVJc7wLfTMz83UwcwTDlOnTrXrr7zyil1/7rnn7DrTDQPJAFgnfQ+QuqdPnz52sn+yjJDXi9RCTLa5dOlSuy+5xOC///3vIS+LedHBK4upkaGkspjOmLJIvECCA68s5lwHr6y///3vdj3assjQApRFKiYyqVDWwIED95e1bNkym6fNK+uLL74osazx48cXKusvf/lLobK8vGmxlEV+uENd1rRp0+y6Vxbz5ENoWSSNZD56ryySYpCEgroOXllMnQ1eWcyxD88//3yhsshXF1rW7bffblNc0Y/ulXXNNdcIyTXCy2La7dCygsD34BxyaV1//fXumqIoQUFCDJJ1REtgg3NU4BXl4IAHEQS+hZ7cYYqiBA9pt4LAt9C/9tpr7idFUYKEHPVB4FvoCVABmTi9cAD/SQLIf7aH431fHOT1IlkgCfzLgkhlsS28DDKCRgpphF8bCTk5loVz9Qj9jv+RfguYBjz0uFBKui9+oXzK4TdDn0P4elBQfng53rMt6f4UB8d6GWlLgn38/vaRQFAG1rfQk9CPSkSG0LS0NLuNCOTo0aNt5JNUvOEPgADDhAkT3LXCkOyPdL5EQp988kmZNGlSVA+6JEhZ7KUgBnKYE73lHMaNG2dT/1IJL7roItm4sSBPPqxdu9bmGt+0aZNd5xpvvvlmGxWmjcXxXsUm8vuHP/zBfkfEnTL43XCI8JMyORwUEFHaslJ2n3zyiY0YjxkzRu688053q9geCS/qHSQrVqywkWpPkfEMHn74YXt/nnrqKXuP/Ci5lStXyubN+anSSoLMsvSI/NagpyUIfAt9ccILdLMgUAhMz549bbcESXF50N9//73N0kklD1UKpBlGiNiXqOPMmTNlyZIlNt0wXRdUIgTp888/t5k6cXmw0CiSs846yy4IKr9BWZS7YcMG99fzrcXbb78tN9xwg00LTFfNZ599VkTYgfMipzndK3QDeudJltKbbrrJnh/nGyrYxx9/vP0ORUFGUyr+3Llz5dRTT5XTTjvNKgaykpJWecGCBTYQ2rJlS9sNx31B6dGF079/f3tddNm0aNFCOnbsaLupuG9kO+U6ydhKN8+FF15oy+U7D3K18/uUC2Q/Jf86udl5LnXq1LHnTcrmY445xiorlDQKja6w9u3bWyGjDLK2kraZe8A+dGXRvuQeZmRk2EysZIG98sorrcLiWZxxxhlWwEOhXLpHebZ0M3I9nCe9QieccILce++99poxIJwTKai9c0ZJURc4J35j0KBB9pxY5x5THtlZeR5kqyW1NOf2W2Lw4MHup7LFt9DTjeBBZacCIkweWGk0FJYfIfSsYpUqVazVRJBCLRsPm0p9ySWX2N9BGEg7jIZ/5513pFu3bja5P+VixX73u9/ZdSwnXgGW96WXXrLeBqmJ6Ss9+uij3V/PF3qWWrVq2XXyfTdu3Dii0OOGUnHIBU75VD54/fXX7XXiGSDIqampdns4CA5CybVieehD5poRDqxto0aNbMXGMlEOlpD78cILL1iFgsIhBTPXgnIk7TDX849//MMqLs4dwSKlMfvSf+yBsCCIycnJdp30yNwzvAzuL9tRMldffbUdN8A9QShJ4/zMM89YS4xAkYIZpchvv//++/YzqaFR9hzDOX/00Uc21zv3hGdBvzvniHcRem+4Xu7XeeedJ5dffrlVuCgRFDiKEeW3fv16e784JwSZ3+acUTw8T+rTs88+K3fffbe9b5wfdeuNN96wHt3XX39t7wupplGwvyUwPkHgW+hDBRx3jdzeVBoPHhICg5BVr159f9JJTxBZx7ohCFhzLAtCxsMeO3asVSRodh4iFahy5cq2oixcuNDeBMYJYC2w7hxPRaIiIMTVqlWzlZv/HiTjYMGiAELGOUZKhkkFRFAYZIOVo0IDlpjrRNAQfMqLhCc0DDZBILD+KBKP7du3W8+lV69ettID50oOcq6V65o1a5YVEgZrIJBDhw61lRtPgfvCveM3uHYGHHlwLJXfg/tHs4ZzQbECxz/wwAPWG0KYgWPI6c595tx5HozR4Jq5T3hN5HLnHMnDjuLwngXNHcpF0XnP21M6QHkoHLwXBlRRNpaZvmTuAYqMfcjrznEoLfLH47GgAHhuKBoUJ+VzjihFfoPzQ4F6ihkvKzyecKRDczcIfAs9AloSVJy2bdtaq4ybjgUKh4eMyzt58mT7oNDkVCYqj+dSY2VYX7x4sbVaWHwED1eTCkYZWHksKBaBCrNmzRpbibAaHlRqLDAKhTI4J5RImzZt3D0KwLJinXEVKYv1aEHpoLjwIlAWeAfh0VcqM+eP1fSUEBUYwaFi46YiZFhOKjUVnljHX//6VxkyZIj1AE466SQbO6CdjDB6cE9QCB4oE9x57j+CAowWpMmEl+SVHw7WlPv6t7/9zQodTSqEFGWAhUb4eBZ03TK6kXJ5PlhnnhX33wOvACXNM+Uz50czA6XG/cWDoBniUa9ePSv8GA0+A+vcF5Q8z5fjOnToYH8XJUL5wDF4iL8laN4EQZJxwe93PxdiypQpcumll7prBSAUXbp0sQ+Qh8FDQ3CpoLRFcd2xhjwcKjPWiv2BNhlubfPmzfdbS6wMlQu3nkqD14BwUslwITt16mQXXEUCfgg4wUTKRllgGe644w5bmahYKAEsNdbNKwM3kornWRratSgDBAI3kTgE33OulEUZWF5iE82aNbPb+R8O142gI0QEMCmbykqufdzzzp0720rJsVhFzgth5Ty5RygI7htCReVmG/ePe4xyRcD4j0XjXuId0WYnqovbT5sP1xjwXPBSaOsj7DwLb8HLwuMgNsGxKEViCw0bNrT3GgUKXDf37bHHHrNWlWdDc4o2NELNtaA0eH5UG+4hz4LrQ4EDSqJ169b2nnneA2137g8eC2VyPgxV5T8WHeXOeXIM3gT1hAXljMJiVBrPieGveD605VHiKEGaK9wzFDQeTKincaTDPaDeRwueJPEV4kElYip7RIzAu58KU9x2D+MSOsY6OaaCOEYjO8bFdL+JHtM2c0aOHOmYCuluUaLBKCnHCLW7VjYYa2OfpfHOnNmzZ9vne7hhmiqO8WLctfgFWRs/fry7Vjy+x97jHhN5VRQlWPBs8YCjJbCx954rqChKsIR2yZYlvoWe9rCiKMETPu6hrPAt9JGi8YqilD1er0tZ41voiboqihI8DEgKAt9C/1vqElGUwxm6U4PAd/Se8dcMG42VnF0LZO+G/CmNQklpdKMkpRYNEu5aeafYnPdhpLZ4SBKSCgZ2QG7mYsnayLsBIZeUkCApDa6TpErt3A35OLnpsnvVfXzK3+CRVEEqtQhuqiJFiRb63RnlGC2BRe+9wSAx4+wzwplWZMnJnOfuUBgne1PE/RMSy7t7FJCXk2G+W154353LJS873d0jlMTC+7lL3u6V7veKcmhhQFYQ+BZ6hoQqihI8h02bHhdCUZTgYbhzEPgWel7rVBQleHjpKQh8Cz1veSmKEjze69dljW+h540vRVGCJ6j4mW+hZ5IHRVGCh1eIg8C30Ac1m4eiKIUJndy0LPEt9EyiqChK8DC7cRD4FnpG5CmKEjwk4QwC30LPNFiKogQPcwgGgW+hZ0JLRVGCh/n/gsC30DN/uRIsvAPFpJtM+MjC5JnFvBe1fx/2D6e4Y/zCzLlMtsl5RAvTZ3NeoYlBSoIy2J/jlHyYUTkIfAs9SSmUsofKzjTOzK7LdNfkDETBsgwcONDOrrt8+XI7k24ojJBkH2aaDYU5/JkquywGeDBtN29d+pmSmdlvuQZm3Y1GkJnLn+sgV4CSDzNSB4FvoWcedqVswUrzSiTzDzLlNBl7mOKa6C3TWjNFN4OimPb7z3/+s3tUPiSzYA56pqgOhf1QCCSVKC2cA3kImJY8WphqnPgPSTWi8TiYU5/rIMmIkg+px4LAt9BjiZSyA/cXAcWS8v40c8Ej+MxlgNCTVYc585mPv3bt2vZzNDBHPVlfyAegHJn07t3b/VS2lCj0JCkgU01oW46Eh0rZgXUjcQOZYRB2LB1WlcQXJIJgwb0m8Qe5/Uj7FQ28lskLG2TLUY5MyC8YBCUKPZYC95BMLbiRcOaZZ9r/SukheEVblv9YcjLlkKGmOMgURPabaODZkVaLjDHFgdtNHIFUVmQXIrUWWWX8wjFkPCIQFzTEB8jhRxqxAwUJ2ddbioN7UNL3TFlFqjHuDbkKSfpZ0v6AkSSmQo4I7iufYwmqkh04CJKL64IjbxhJGLFAtBdJRIgLSv60aCvebwnH2StOTkGuOI+EpKqSkBg5i+2BIMUUbV/SeiH8oXndSgvNAzwDPAZyzoVCpaRcMs3SfMCbI67A7KvnnnuuzRhLqrBoIPXXyJEjreLCMyxJaZUGElWS1grBoz5SL8lfiFIj719oqjQPmqIkzySVFqmyw+GcScLKDM8MOiMnnwff4XXxrgkZiMkDSLoyro/ciGTj5d7y7DxQEAg6yptYBok+URC8mYqrTpo4P4liSELqp4scZUj5pEMrEfPwnUhLnz597P/U1FRUlGMu2Bk1apRjTt4ordjJ3jnbSZ93fpEla8skd4/C7Fw6MOL+Tl6Wu0cB+7Z/GXHffdu/cPcoIC8nw3zXq8i+GYv7unsUZl/GLCdjYb8iy96f/+nu4Q9SdhnLbe9tSkpKzCm8evToYX/jkksucbfkM2LECLv9mmuucbcUYCqxU716dScxMdGmrDJehj2XFi1a2G1VqlQpdD6ktOK3SFcWCmm0jEA5puI7RrE4RnG43ziOaaLY36pXr15U19aqVStbRsuWLd0tBVCOETCnXLlyjqnQzimnnGLPt1mzZo4RdMcoK1ueETD3iHyGDx9uf7Njx47ulsLs3LnTMUJoz9MoB3drPqSH4rnw+8cee6wtz3i8jjF6dv9zzjnHMcrT3TufadOm2XOhzAoVKthr4Vh+h3vUuHFjX+m3PBmMdjHeuGMMcsTvQpdEAj2RFhIi3nPPPTZ4dNddd9lsG0x/HdSL/Yc9To44ubuLLk5s6ZGxCp47jLUKt1JBgatK4kuSRtKdRrcQ1hCLhmWjHYn1O9D50HWI9eT3SKzJZKmRZkrGq6AJcaCF+wGhlhOw6JwvPQEkuZw0aZK1vJwvsQ9SP3Ef+/fvvz/9dmkhzz2eDudEfSegSnkkycR7wkOiezH0XLHqRNvxGsjKSy8XnoYXiMXbIPMuqd5D05eXBM8gkmwWt5BwFG8x0nehS4ltelwY+obJtEHmV8DlUEoPD957+EG5xJEwnoHNQktTjbHdxGjIPgvG2tpKibtcEsYI2eDj1KlTbTcilbo4JYHLiRDwolZJC+4zYGxCQSEhdGRvJfZAllziFUBdROjHjBljBZSxCpxbaUHo9xn3njIxePSogLHwNmuw8Z6sIvKEHheeso0VtYqJ82VsBTLDbxBbIRc/501sDEV5KClR6Lkw0heHommtygYsIAuUeobhKKEyb9u2zVqD0oy3YNzA6NGjbaXGAntCWBzLli2z6bFLWrzgWHgwkNgEAk17uDjFQuwJC4aCCB+8FAtenUdhYakPND4B5b1o0SKrFIrzhBmDQRpwAp6HOkuU7356XDGl9JC7nQUIhh0MCPIwFoCeAs+6+wEXlmDaVVddZRUWM7t4HmBxoBAIJOL6lrRUrVrV7k+wLBQvgk3XZXHQPCLATFOAaywtBNu6d+9uFRA5703b2rr0NC24B5QT6lHQi4DrTvOG8idMmFBkmTx5su3l4L55TZlDhW+h1ymwywasltcGxtIdDKhsVNZmzZoVaTtHA248riqVnvEatKMPBMLMcS+++GKJi5e3LbwbLiMjw/7HbS4JT2lgnUsLntcbb7xhlRFNHuJZeL0oL958YzwF4yY88FKw9txfroWRkOELcoMSwd0/kGcUNL6FPhYLoRQFgadrDOj79TPENVY8QcfFjKXtSzyACs+5E+wLrfhB4SlGPJSS8JoF4Z5CrKCEuEaaLwgt3ZLEE2g+0IxAAaD8gPvKeaamplr3/pVXXom44Clg8Vu3bm2PO1T4Fnpt05cd9I7QfsRCRDu8tjTUqFHDlvfFF1/sjyf4gXY1riouLxZ5xIgRUUeiY8ULojGWoDg4BwbrIHxlOVc8v4eAMv4AYebaCcgxxJkAt/eeAIaQe4viady4sZx11lnFLgROD1YMpzh8C/2hPuFDRWJKU6nQoF+RJbly4Rx5fqAbB7eRABAWgGAQUePiCA9y+YVBIlRKXGC62CK9jlsSCAFBwKefftoOUMHSE+3HcwgKehkolxeSirt+3v4jck6zJVTovcCfZ5HDIaCGlxVOJIXIMyIGw2SVuOjgxWLocWjTpo29n7j3XpMkEgwyOtRomz5Kkso3lgr1BhdZklJjF3qgS4huLwJBBKuw+JECez/88IOMGzdOZs+e7W7xDwqbt/WowLzCirvpRc096AMnwl8STZs2tX3Q/KcX4IEHHnC/KXsuuOACa0V5C+/ZZ58tdG8QThQP14LbPWjQoEIRfvqtgVF8KIVQGHFKXCJSDIBeDnooIj0H9kdZcA9RfID3RKwD5UQ3Jk0Bfj8UvDkUFy9XxeJllSW+805zQ9Bq8Yn/4NeBwPLiNuLqE6lmBlQGzBBA8oZTYqno3yXgx72nvzpWeHlnwYIF1iIxuIY+Zaw3lZhyqJj0MR/oZQ/avLi8tG35Lc4Lr6WsYz50dTEvAIqFe8MLSoxrQLixmgzIQRBxm8OH2jJMlq5F4gHMQtO3b18b8KMLkSYOnwkQMm4hFOYgoIeCd05QyPXq1bPBN3quCOqhDHDVu3Tp4h6RP7kMxxHlx4uaP3++vSd4AQg558q9pWuR86GJcMhwisG039xPhSlue7QcqcNwg8ZUCmfIkCHOiSeeaId5Rlo6dOjgGEFzj8jn7LPPtt/179/f3ZKP8SDsdobHhsNwWSNEEcs6+eSTnbFjx7p75sNQXb6bOHGiu6UAY7ns8FijOBxjdd2t+cNwk5OTnfr160c1DNcIiC2D4biRMMLudO3a1f5m6PkaIXJuu+02xzQx3D0Lw3Bab+ist3C+N910k5OZmWmH0/KbX331lXuE48yYMcMxXpfdL/Q4FoYVDxgwwFm1apW7dwHc18cee8yeZ/ixlGGaBs69997rGOXqHlEyF198sfspOjgnrvdA+M5Pj+YsTZabnMxvZXfa/e5aARUaXSEV6lzlrhWQuewKydtTNHJb5aR3jeEtPHAoe8dXsmd10eZHxeb3SLlq3dy1fJzcnbJzEVN/Fb78hHIV5agT3nbXDi48CvPgrCvv9ekCbiORYV4wod0aCgEuUhpjefneA+uFi0n/NdYyEpSF90BZuPlYM9r9uO2U6YHLT3uVEXDhb+1xHG1q/mMViVMAVpFzI6pNxD/09yLBMFc8DTwFegnC4fcJ1uHlYClZx4rSvuaci4vacw/pWyfxKvESzgcry2hT7ilDaz3L7VlffpvmAH3uWGhcc8CNxzOjHz985KCHd548Q54L5Ruht14Fz4H7x3o04Jkw7Ddaos1P71voS4sKvaJER1BC7zuQh0ZWFOXIxbfQa1orRTmy8S30vBGlKMqRi2+h17RWinJk41voNa2VohzZ+BZ6TWulKIcvxXTGFcK30NOVpyhK8DDEmLEB0S6Mk2BUYqTvQhffQh/NO9Ql4eQx1puBGmFLXuE+d0WJdxgGzEtG0S4ML+ZlqEjfhS6+hb60aa2yN2ZL+vMbiyx7FpU8l7iixBtM4hEEvoW+tGmtcn9NlJx5mUWW7HWH/pVDRTmcOCRprSIRbVolRVFKB69SB4FvoY/0MoSiKGUPcwgEgW+hf/TRR91PiqIECROsBIFvofcSWcZMdrYkJCQVWZJr1XZ3CCOxnCSUq1BkcZyis48kJJWXhPIpRfeP+FqnY/YN248lOfIrk4pysCF6HwS+X60lC2e7drFPEZWTvkOy0tLctQJSWrWWZHca41By95h9naLzhCelMqNo4eQHTt4uydu7lhEK7pZ8Eis0tIkmC2GURu6e5e5KCAnJklSxlbuiKIcOZuH1MxVZYO/TM0lAtJMAKIoSO0y5zey70RLY+/RMB6woSvCQQzIIfAt9pBlCFUUpe8KnJisrfAs96aoVRQmeu+++2/1UtvgW+rJKG6QoSsmUlPikNGibXlEOU8i7HwS+hd5Lr6woSrDs3LnT/VS2+BZ6TVWtKAeHw6ZN/9NPP7mfFEUJEpKOBIFvoWfADplB169fb7OjkBWkW7f8RBLTp0+3gT5yoQE52lgfPny4XScnGetPPPGEXWcQAesk/QNeJWSdJI1k/iRBIBldKIsJAkLLYhBCaFm85x9rWbhR4WXVrl3bZihl7JJX1oABA+yxBypryJAhdp2cdOCVxUwooWWRkz7assjjBvSesD527Fi7Hl5Wnz59CpXlZayhLLKuhJZFHrjQsiZOnBhzWWTJCS+LvG1du3a1A7q8ssj5BsWV9fjjj9t13uZk3Rsg5pX19ddfFyqLxJ/RljVs2DC7jrfqp6wOHTpIkyZNbFmkqA4ta8aMGYXKIg+9n7IuvPDC/WWR4ccri+xEZJMKgoOe4UZRlGAIbESeoihHNir0ihJnqNArSpyhQq8ocYYKvaLEGSr0ihJnqNArSpyhQq8ocYYKvaLEGSr0ihJnqNArSpyhQq8ocUaxL9zUrFlTWrRo4a4pinK4Qxrqm2++OfZ57xVF+W2i7r2ixBkq9IoSV4j8PydqmWUjg7KQAAAAAElFTkSuQmCC;container=0;" vertex="1" parent="38">
                    <mxGeometry x="15.271513478260886" y="24.456521739130437" width="110.37914695652174" height="59.33565217391305" as="geometry"/>
                </mxCell>
                <mxCell id="33" value="&lt;img alt=&quot;&quot; src=&quot;data:image/png;base64,iVBORw0KGgoAAAANSUhEUgAAARgAAACICAYAAAA8n/R7AAAAAXNSR0IArs4c6QAAAARnQU1BAACxjwv8YQUAAAAJcEhZcwAAFiUAABYlAUlSJPAAADC2SURBVHhe7Z0HYBTF98e/6Z30hCQQekLvVZpUpSiK0puK0kX9A4r+AEUUlK5UBZWOSBFBQCnSq0gJPQFCCZDee7v/vLm95O5ySS54ZDdxPjC5eW9nd2budt9OHzMVAyWgf//++OWXXyRJIBAonbt37+LAgQMYPXq0pCk9zKVPgUAgMDnCwAgEgmeGMDACgeCZYfEZQ/IbxdatW9GvXz9JymfixInYu3cv4uPj0aBBA/z1119YuHAhP1arVi3s2LEDy5cvh4uLCypXrowff/yRu2rVqsHT0xMLFizAr7/+ys/NycnBl19+idOnT6Nly5Z4+PAhZsyYgdDQUC5fvHgRs2fPRlxcHBo2bFjiuCjs9u3bC8TVokULPHr0CNOnTy80rsOHD/PzqekqICCg0LiqVq1aaFynTp16qrjo+ylJXHStkydP6sRF9XFTxlW/fv1i47p06RLPd3FxOTs7w9/f32Bc27Zt4/nKzc3Ni6t58+Y8Lro37ty5oxNXbGwsj+vIkSP83iosrp9++km2uBYtWlRoXI8fPzYqLjpPE9fcuXPxyiuv8OdAG/re6beg65Y2Jmvk3bJlCwYMGCBJAoGgtCFjY25esFJSLhp5hXERCOTl+vXrkk85mMzArF+/XvIJBAI5+OqrrySfcjCZgdm9e7fkEwgEciBHG0txmMzAjBo1CpmZmbhy5Qr++ecf7sifnZ0thSg5dG5QUBBvXDMF1NiVnp7OP1NSUiStQFA+eP/99yWfcjCZgenatStvPacH99ChQ9ylpqZy3dMSHh6OnTt3csNlCihN9+7dQ1ZWFm8QEwjKE8eOHZN8ysFkvUiLFy/Os6DUXW1mZoYePXrg1q1boJ7wZs2aoV69erxrLjk5mXepUSnn5s2bCAkJwciRI9GzZ09MmjSJd3WPHTsW165dw8qVK/Hdd9/x7mCSX3jhBd4aTuGoy27QoEE8jsuXL8PX15eXUMiwUXqoO3Tjxo3cmFCXHnX72djYoHXr1mjUqBEvIc2fPx9WVlb49NNPsX///rz0vPXWWxg8eDDPj0BQFhg6dCg2bNggSfmUi14kGttRGO3ateMGgfrzyfgsW7aMV5/ItvXu3Zv34SckJCA6OpobGerybtWqFe/THzZsGGxtbREYGMjPjYmJ4eNGnJyc+HXIqNBYDfLfvn2bN3TVqFGDX69Dhw78WmPGjEFUVBT69OmDyZMnw9HRkRsXKtHQOIWZM2fyH4bGc/Tq1YunJzExUUq9QFA26N69u+RTDiYzMFOnTpV8BfHy8uKliM2bN/OSyddffy0dASpWrAhLS0vuaCAcVYfIGB0/flwKAV7iIYNCYfz8/LghIKNjZ2fHj5NBof5/BwcHXhqhcFQNIuNB8dHgJjpHGzJuVNKh67i5ucHCwoLrfHx8+PkkCwRlieHDh0s+5WAyA9O0aVPJZxh6wKmoRlWjwsJeuHCBj3CcNm0aL6loICO0adMmPqKXRo+SwSqOjIwM3t5CVaPatWsXaHMhA2JtbY2zZ8/ykpHG0AkEZRUqeSsNk00VoKHhnTt35n4qTXh4eMDV1ZX7qUri7e3NDQO1pXTp0oXLVapUQaVKlXjphEoeNGSaqlrnz59H3759eYmEXJMmTXjp5vfff8eUKVP40HUyDjTkms6jodgUl729PTcmdKxmzZq8tENDsakBmkom5E6cOMGHt9OxTp068ZISXYOsP7XPaNJD1yCjIxCUFWgqAT03+pSLqQLUViIG2wkE8rFnzx7ehqhPuWjk/eKLLySfQCCQA0PGRW5MZmAqVKgg+QTGkJuRhtSrfyN21xok/3MUOcn/vtdKlZ2F9PvBiNu3GYnHfkdWdDi1ZktHBeUd6sxQGiYzMNQwKzAOMiYxG5cgbsM3SD22Dwm/fI+oFTORcuUsVDlPMfKZGZHspHjEbl2JmFWzkXJoJxJ3b0T0ys+RevOiMDL/EWjZEqVhMgNDDaUCI2APe/L5w8i4cRGqrEwuU8kjO/whNzjRm5ciPfSGcYaGDEtCLBKO7ELE/MlIO38cqrRUtUHJzUFOXDQS9/3MSktMJyj3jB8/XvIpB9EGU8qo2IOfev4YNwAFyM5GxqXTrBQyB7HbV/FqVOGokHL9PKKWTkMSMyKqQqpY2U8eIPPxA0kSlGfatGkj+ZSDyQwMzRsSGIeZgUWB8qASTUY60s4dQeTyz5B0+gBy0nVLIJlRjxGzZQXiWYknJzaaBhlJRwpCcalUppt3lZiYhCtXrrFr6la7SI6OjsWDh6aZmCooOfPmzZN8ykG0wZQyZhaWcGjdlX3zxXz1VP0JC0XCjh8QsWAyMiPDpAN0DStkhFyFyohJoBZefrDxqy5JTw8ZlqXLVqN3n8H4v8nTmU3LN1qRkVGYNmM2XnplMLZu3SlpBaUNzcdTGiYzMHXr1pV8guKwrd0EFh7eklQMubnIZaWUqGWfIm7XOmRGhMHKzROu/UfDzM5eClQIFhawb90F5ja2kuLpOHfuArp2fxXLlq9GFDMm2azEZGamLrVs2ryNHeuLHTt2IyE+4almqWdmZuHa9VvYu+8AoqLyR3ALSgYNdlUaJjMwNFNZYBxWrp5w6NibFUXYU2okquQkpBz9HdErZiLx9H7YVA2EDTNURWHp4w/HFp1KFI8hkpKTkZxccP0cMjBxsfF83tfT8scfh9D39eEY/sY4fDbza0RFsyqf4Kmgke1Kw2QGhub0CIyEPfBOLbvApk7RBsIQuUkJSPx1DWLWzocqO6NQ40GlG5eXh8Pc2kbSKA8yUD+u2Yg7d0KRKhYA+9eUcNZPqWAyA0OTCgXGQ42vjh16sWLGU3Tv52Qj42YQMq6c5201hrCt1xw2VQIkqWQUcsmnQr8xWJ9/V7YSaJOUlCT5lIPJDEzHjh0ln8BYbKsGwKZhC5M/ZeYu7nDq1AdmJTBeubkq3Aq+jYMHj+DXnbtx8NARBIfc0WnMNRYyKo8eheMAu9bGTVvx2669OHvuH6SlFdXtrp5xf/NmCC5cDOLu8WPRM1kSaNE0pSE2v5eZ7MQ4RH7zCXLjTdS4aWYOpxf7w7lrwVm1hREdHYOFi1bg6LGTiI2LVxdhWNXL3c0VvXu/gDq1A/DxJ5/nlUYq+njj4J87WBAzrFjxI5YuX831JA8fNgB+fr5Yu24zNxCac2ggZutWzTFx4mjUr1eb6+jYwEEjEXQlf7sNK2srfh1i5JtDMfHdUdwvKJ4nT57wFQP0KReTHfft2yf5BCXBsoIrHJ4rfiUyM3sHWFSsxB/8orBwdoVjm66SVDypqWn49LOvsPO3PYiNjcuvH7HPmJhYrN+wBd+tWqPWFQMZjJOnzmHh4hWsBPMkz7gQ1BB8/MRpvP/BxwgNLXzgX1ZmFjIzMrnLfpppE/9hynUbDG2LKXg6bAMbsV+i8BX0zGzt4NJ/LLzGzIBtw1ZMIR0wgHWdJrBwMH7i6aaft+PY8dM6xqBZ00Z4+eUeeKF7Z9ixuEPv3tc5XhS3b99FLqvqvPhiF/R5uSd69OiGChWcpKPgpZoFi5YhJaXg9AVLSws0bFgPbdq04M6/cmXpiMAYaI0lpWEyA2NooRuBcVg4OcNcWv6zAJaWcBv5ERwatGThXOD6+juwLGzgHCvdWPlWkYTiiU9IxK+//p63tQxVTV7r+xLWrlmBr2bPwKKFX2LDuu/g5OTIjxsDLTD24ZSJWDj/C8yZPR0L5n2OT2d8yPUEGaojR06wUsx9LmtDS6BOnzYZq7//hrvX+vaWjgiMoVyXYAYOHCj5BCUlNyuTuQxJ0oOVBhL3bUZW1GM+jyn57CHkML9haPKj8W05j8Ie6zSk1qpVAzM/mwoLC3NubMjVqlUNr75i/DojgYE10bNn17zzyXXr2gmdO3WQQqgbc4OuXJMkXcgQaRydKzCecr11rKHtEgTGkRUWSo0UkqQHe+Nn3b2FmE1LkHB0N5L2beFzlQzCajGZ1y8YveTDw7BHyMjIn24QGFgrr6ShgdYubtO6hdEPe6NG9eHq4iJJaqysLHljsTZhj55IPoGpKNdbx+7atUvyCUoCVRlSTu3nxqEosh/cQfKezUVObCRyIh8j9fIZSSqatDQqNeVHbG9P1bSChsTB0RGWzEgUBxkh50IWHnN2zm+HIbQNm8A0lOutY9955x3JJzAaVS4ST+1D5t0bkqIYjGhoVWVnI+nwb8hNK35kLBkU7ZIJ9SgZsnQ0yjYnu2jDpqGwwV6xsfGST42dnXJHGJdVyvXWsd26dZN8AmPJZKWNlEO/GWU4SkJ2RBgSj+9l9qvoQXKVK/vy3RM0BAfflnz55LK0nTt/wahJjFQaozEtCQm6a9OQnrrBtalcyY8bN+2lKyicqbYJ/i+ixK1jTWZgvvnmG8knMAr2MKVeOIHchDhJoQt1TVu4ewMWT7FXE6tGpZ09hOzYCElhGD9fH1RiD7qGkJA7WLV6PRISE3lDLD3s167ewN69B6UQxXP9RjD2/XGQVb/See8UbeX7+979OH36bykEYGtrg/r16nA/bRGjIT09A4f+Oo74hATejS2qUSXj+++/l3zKwWQG5uTJk5JPYAwZj+8hhZUyCoMG1rmPmASnngOKX5bBADnMcCXs31ZkKcbZuQL6vtorr5pEpZTF367EmLGTsGjxCnzyvy8wZvxkhIcXbai0oTEw8+YvwbgJk/H13G8xacoMfP75PJ2u8E6d2qNGDfXM34CAGvyToDBr1mzCwEHvYOjwMdi4aZt0RGAM/9mtYwW6UPtIwu71hfcGMahkk/EwBBU69IbnxNmwa9YOZiWZGc1KSBlXzyHt1iUS1DoD0LiXLl06wtxcbWTIIF26dAU//LgBe1jJIz4unhmDaqwgZVxJirq6yYicOXMeGzb+gr/+Osa3/iVIT9d6f+IYvmUv8WqfXvDwcOd+gozM/fsPcPNmMCvJ6LbbCIrmP711rCCf9Hu3kHUvWJIKgZUEEn9bw8IGw9rLF24DJ8D1rQ9h6evPnlQpTDGoMjKQcupPqIpYr4VG2X7+2VT0eLFbgYXbyah079YJH7w/jo+NMYhWWsiAdO7cHuPHva3TtkNQ93erls2wbMlc+PtXkrRAzZrV8P3KRahWzcAAQdM2TZV7du5U3mqCJpvsSAtOff7555IkKBRWQoj6aS4yrl+QFEXAHkpamMql5+C8xtCcpHikXD6N5EM7kZtouP1GGzMbW3hOmAXrYkb4UvsHzaa+eu0GEhOSePWpbt1ABLASCc0juhx0Na+h19bGBq1aqbtEHzwMw4MH+evwkvHw862Ihw8f48bNW4iKjoG9nR03IAEBNVHBwKhgugUjI6Nx61YI7j8I4+02bm6uaNG8iY4xEhTN0KFDDY5Hk3Oyo8kMTGGZE+hC3chPvnoXuXFFjLg1M4eFlw8q9BoM+7rN89pItMlOTkD87+uQEfR3kVUtdjJc35gMh/otJIWgvEJ7t/fuXXB6RbmYTU0bbwuKx8zCArZ1mzGPpNDD3MkZzq++Cc9R0+BQiHEhLB2d4dZ3FDxG/Q+2jZ/jhsQQ5hVcYetfU5IE5RlDxkVuTGZgnJ2dJZ+gSJghcGzVBZaevvlGgX2a2TnAtlFreIz9DE5tX4Cli3uhRkMDLYdJa/O6D5oA54FjYVW5Gsy0GmPNWNXE/rluMGfGSFD+Kddbx/7vf/+TfILioPYQtxGTYN++B8xdWAmjaTt4vP0x3AaOh7V3/rgUYyGj4tT8eXiM/Bgug9g1AhrCpmEruA59H84deusMZhOUX8r11rGWRnZjChhm5rCuWBlufd6A7/Tv4DH4XVYSCfjXC3TTcg4OjdvCa/Q0eJIBq92kZF3bgjLNuHHjJJ9yEG0wAkE54bnnnpN8ysFkBiYiwvjRngKBwPTMnz9f8ikH0QYjEJQTLl2iUdvKwmQGRmwdKxDIi9g6ViAQPDOqVasm+ZSDyQzMuXPnJJ9AIJCDcr3otxIbmASC/xIJCQmSTzmYzMBoto7du3cvunTpguXLl3N57dq1XN66dSuXyRCRfPToUS5/9NFHXKYV0VNTU/HWW29hwIABiIqKwr179/DSSy9hwoQJPOz58+d52JkzZ3KZNnszJq4jR45wWRPXtWvXeFwjR47kcUVGRuL+/ft4+eWXjY5r3bp1OnHR3tzacdHyFcbERVPBlBiXZr6ZJq7Dhw9zWTsu2gr27bffzovrwYMH6NOnD8aPH68Tl+bNqolr2bJlXDY2rqtXr+bFRXPhqMdSP65//vlHJ64//vijyLgWLlyoE9fHH39sVFw04bO4uNavX2/yuDTbwmriWrp0KZe141JiCUZsHSsQlHPKxWRHgUAg0EcYGIFA8MwQBkYgEDwzhIERCATPDJMYGGonjo+PR1xcHG/5pi0vYmNj87rNaMnFmJiYvE25MjIyuJySot4cjFrSSaalEglaJJpkzR45iYmJXKYFoU0VF30S5TUu0ou4yl5cFI6g80oaF30qDYvPSti3RV2l/fr1kyQ19CUcOnQId+7c4aMJ6Uv7888/eVdzrVq1ePcbyaSvWrUqQkND+doVtFqbr68v76I+fvw47Ozs4Onpybvmzpw5A3d3d7i4uPBjFy5cQKVKlfhi0pq46FpklIqKi7q6DcVlb2+vE5ebmxuP68SJE1ynHdft27cVGxfh5+eHGzdumCSumjVrmjwuOjckJEQnLurWprjok7pei4uL7g0vL69C46KwtFMB5ctUcdE9V9pxae75wuKqUqUKN0L79+/nv5Mmrt27d3PjQ+H1IcNEPUlybC1rkm5qsqhkPTVbUQgEAuVQ5rup6c2nsc4CgaD0oZISGRKlYbJGXtr3RiAQyAO1D50+fVqSlINJrALVITt37ixJAoGgtKH2sMDAQElSDiYxMNTIS63gVFV69Ch/Ey5tyLrSvi3UXmMM1HJPjVzUcGUs1NB269YtSRII/js4OTnJ0ohbHCZtg6GJddQ6rg81AFMLe5s2bWBhYSFpi4bqlDRxsiQGhozcqVOnJEkg+O9A9z5NnlQaJummpm4zyiB1SVIpgrrNFi9ezFuuaa8W6rpesWIF765btGgRn2VLFnflypXcMG3atIlb31mzZnEDQV8UXWfHjh1o2bIlX8yKlgMMDg7mJaAKFSpg2rRpfJFj2k2SZulevHiRjw2g7rvatWvzzzp16vBVvqi7lGZpU3dd9erVeRpoJvLly5fRrFkz0X4kKPPQvU21hIYNG0qafOTspjbJk0VjITTLNWioX78+Nxg0JoQMCxkK2iCfDAstHUD+Dz74AGPGjOENVGSUaOuTsWPH8u60Vq1acUfjSXx8fPiav46Ouvsah4WF8dITTeufOHEinn/+eZ4OGkegj4ODAzeMN2/e5OMaKA46lwa/CQRlHXo2mjRpIknKwSQGhqoz+m0vZBgMYWNjw93ff//N1/+g0gc95DSAaPjw4bydhko2VILRQEZJGzpGcVLVi9p/CoNKOxoDQjtPUkMYQQPMaBBU48aNYWVlxXUCQVmGXqBKXBfbJAaGhimXtO2DHvzKlSvz6hMNeaZq0a+//sqLeFTqobYaMiS0gJIGstI0YpHiomJfxYoVedWMqkfz5s3jBoeuRYaFqj80OpJGUGpDJStvb29efTp58iQfhi0QlHWoFqDEZWtNMpKX2j6oVEBtH1SiIONADzlVVWi4fEBAAG8A9vf35yUdKq2QMaAvhEonNFyaqlE0/D88PJyXLFxdXfmqadR+ojFG1LNERoPaYKi9h9pTaLg0VXtoyDQNkw4KCuLx0cpgZPioOkTxkUxD7iltFA/JlF6qfgkEZR16Dg4ePIghQ4ZImnzkHMkrVrQTCMoBVNqnlzO9qPUp81MFqIRBJRiBQCAPNA/QkHGRG5MYGJpKTu0gAoFAHugZ1CwCryRMYmCoHYUaTQUCgTzQWLTCRtHLiUkMDHUBU++MQCCQB+oU6datmyQpB5MYGOoavnLliiQJBILShsZz0WJVSsMkBoaW96OuYoFAIA80VITm+ykNk3RT02A36iKrUaOGpJGHqCMzaIFglitJIeXMjMl5mSxRbkuGc6MRsHarKUmlR9rDk0i+8wf3U9aN/kX1vqenxbKCH1ybjZGk0iMnIwGxp4zYsliTT0KTV1PknV3D8/lZkiAvNO2FluDs27evpMlHjIMxEfeXtUWukctBPAt8+i6DbaVmklR6JFzchNjj30pS6WNbsR58+v8gSaUHGZgH370gSaWPuZUlqow9IUnyQgNbafqM/nw9osyPg6Hi2dmzZyVJPrip1HIkG9Lpy6YKo/4jD4bSYziNurKpwsiGJn4tZ2ya/20Y7lcQJSwrlAomMTA0X4iG3suNKhfIzVXlOZXk9HX6Mjkrn1pwaPgid47Sp7ZsSGftG6B7HSkdpQ1/EKR06OdLX6cvk7OuXBcqc6siw+jrdGQpHXJgMD2F6LRlSzdvmFnZwtzBDRYVXA2GKf46UiIUgFLbYExiYDw8PNCuXTtJkg9+A9DD9hTO+8U5sPVoAlv3RkY7z+5f6FxDNrTSYKyjn96uWmtU7LsAzo2GwHfASri0fgOWLhUNhi/asT+yYGYgLUU7K8/q8Og6CX791sLKrRasvRrAb/DPcOs4nhkaD4PnFOrY/aYUaI6doeqR3JjEwNAwZSVMGtT86PpvnsJkbV1WwmNEHvwa4fvncBeh5fR1GjknJUrnOnK9yinawvJlSIaFNTMs8+Hebhwi98/Fk52fIGzjKOTmpMJ/+Fa4PT/OqOvkO3U6Sh32gxtKj75OI7u2fROV+q9CUvBhJIXsY9+bGb9GwvUdyIy9iyojdsCxfvdir6OR6X5TCjSpt3v37pKkHExiYKgFWwnDlNlPzm4AetjUjm58dbXJsKytY3/B7pkiw+jLdIPp6HgqZEBKtyYt2mnUls2tbeDW7m349V+CpJsHcX/tCGTGhTPDokJOVhZiT23B3VUvITctGZWGroZ7+zGwohKN3nW0Za6TLeOsBGMoPXo6pzpdUWnwSqa0QOgPfZFy5x92PIcdVKddxQLFX9iLu6tfhg0r0VR8dQ7sq7cqcJ0Csmz5LgitNEDPodIwiYGhzFEdUG7ox+dPeXGOsq3xm6n9EQdmQ5VDd02+jjv+lpP8+o7QkuW64Xi8RTgzc0v2wDRH9bH7YWZphQfrRiHh0h6osqX8arnshDjEnFiLhxtGM6OTBP/Ba5lRGgZzK/sCYfMd/ZGJAmmRHPvdLCt4wn/oKjg37ItHv7yH6KOrkJ0Yz4+rVPnVK805lPfIP+cj6sg38Oj4Hir2ngYLO+e84/qO328KgdZHouUalIZJDIxSti2hm0VTjC3KubbqD0tXL+737jEVZrZO7Fz2dm//Ftf5vfY107EHij1UTo176Jyr7Qh9WR5006XtbCrXh+9rc+EU2A331r+BiEMrDIbTdzlZ2Yg+vgF3Vr/OHspY+LwyC55dPoDK0rJgeBmzXiAtlBhrB3iwap5P75mIObMeD7ZMRHZaum4YBrUdqZ3udTIin+De2reQeu8Sy/eXcGv7Biv8qBvBtZ2Sem1olUhaM0lpmMTA0KLZStg2VlNsLdKxN5utT0NYOvvA3N4FDlXbwMLRk8l+sK/clOscq3fgOgtHd9hWrMsyaGnwWoS+LAe86K6VDnKUdq9uE+Hd9UNEn1qNx7tnIz38LiulqR8oY112ciISrh9B0u1jcAroCHMbxwJhqKohF/ppsa/eFFVH/ISczGTc3zQBiTePIjczKz8M+/1tfGrBzrcZC5PGjqUzf1PYeNfgxzThctLTEHdpNx5sfo+VhLzhP3w1rNz98q/DHN1vSoEWd+vQoYMkKQeTGBiq+x0+fFiS5IPeKPzNIjmNP++Nw5xrqwFwrPocfHvOQrURP8DS3gOVX18Anxenws67PtdR8bry64vhP+AbOAf2gFeXiQWuwz/5TZavI1kutNNFrlLfOUiPuIt760YjJfSqznGeVi2/5hxDOodarVFlyHJYOnojdP1oZMbH6oTjfoXkmz5d6vdF7KVtiDq6hhmQbJ3j5vYV4NPrE3i0H4Un++YgLTwESaF/I/KvpfDsNB6+fWbCwskjP1/kmHF6vGcukoL/gj17GenHpxRowanQ0FBJUg4mMTAEraMrO/RGYb+55g2j8dMnOb/XZsGr7WiE7f4Mtxb3RvCSvrj2ZSsEf9sHtxb1wvU57bju6qzmXBf87Sss7HS4NuyDam+sgvfzY3SvSUh+OY2LobxaVfBhpY4zyElLKXCcPg2dk6ejt7xXdfj1mQH35kPw6LcZiDq+jr3pa6PiC8zYqtTtUvnXoT8ykZeG/M+c1Hj1wy/JsLSGY43WqPTqHGQlx+Lh1k+Q+uAaK83lQEWbBt67jAc/f4i0iFsszGy4NOkFc1Zt1lxTlZ2D7JTYvOvpxKcQaMKxEvcEK1dtMPyeouqC5PJa+yUXtuNzpIRfV980kk4/jEaXJ7OwGdGhuLtuPCKOrNYJw28ybVkuWDr088DVBr4PfdmQzqfnFPi/9jXig/7Evc3/x6yVLaoOW8ne4C1YScaLXTe/94Y7Fo9caNKclxbSsQRp69xavA73dm/i0e4vEHFgOXIzMgvknUoqUcc24D4zNNZu/vB9abpuGPou9b9nGfOtz39i61i54TcK3VyS0zTiaWTbSvVhaVtBfaNIOv0wGp22n9od6OGy9qqho6f7S1tmf9QJKWUoJfp5oMTp6wzJGh0srfibu/rIVewtH4fgFQORHhOGit3fhVe7txFxeAXCds1FVlqczjXU15ESIgPq+PPTos63bt4tHdwR8ddipEc/ytNp511bRyWc8MM/ISc7VScM+y857fBSIhQALfpW7reOlRv+o2u9YXTeNsy5sgfI2llqqNPS64fTdmBva0tHd3g8NwhOAe10j9FhLVmu+00/P+S4Pld3nIj2cW2djXdV1J64C47VW+LOT+MRfmgVaJiIHyvJpIUH4+7GKUi4eYo3ENP3oX8dcrJgIN/0G/DGWn2dobBaTv/7oZO0dRw9nZLaYJS6daxJDAxtIULTBWRH+uHpJnBp2A013lyGam8uRZVBs3kp5PGfS5EWFcLfQppw/ObR8tOntp9uzMzYMDzY/imiT2/ROUY3nM515EK68bXTRrc+pV2j006nts65UVf4dPsA93ZMx/2tnyEnI4MPvKNzzcwtkPwgiLdB5J1D351evkknF5QG7Xzp/yb5OjMdHU93YX4KT/ksRqcg+8IX3qe9wJSGSQyMoa1j5YD/8PSjM+cc2AWxl37HndUTELrhE2SnJqP6sCVw9GvEj2vCqW+cfD996h+3rRiAOhN2wK/HFJhZWMPM2h7mzDGh4LkywKM1kA56CHR0Wn7Np71fA8Sc34Gk4L+RqzXwjp9LsIA652hKB1o63ugrF1rp4H6C0qOn006v5lNfl6fnec8fYMmPU2lQkvN1zCmE/9zWsXLAHgVmZNSOy+wu0MjkQlaPRtLDi/zm0NYX5Shs2pNbuLKgN+7vmgPP9gNRbehc7pLD1N2/GicXhvKj1uvqDDl+roHzNW0MZLS19fRw8TYIHR1zMqGdDnK8lMHTraXnSdSSi3EU1tzagWYQ5utYXIauqxTE1rGlgObNWpizsHOHuYWVwWNFOTNzK1jZe7GbzhlPDq5F8PfjuXv420LdsFI6Sh3tNEiOoAdAX6/vDJ3LnfR2LqAnnd73TEZILrTTQY7r6J+2TstvjKN5WZnxkQgcswYOVViJV7pn+LW1w8qYb32UunWsSQwMdZHR9qxyo64iqd9ABH9rSTI5t+Y98ht5JR1/G0t+bZ22bOnkxkou/eFcp02hYUhmHh6vHOinR/1Q6eoMpplXBQoLo86Sts7QdUktFxS/oTTny4Z1+t+Fji43B2F7v8G9X2ejYuc3UWPQbFg5ebALGPieFQLVIkJCQiRJF1rpgNpo5MAkBoamirds2VKSZCTvRiIv3QC6A8LC9qxAaiQ18ubr6LjOeQVkM2TEPEboli8QcXJ7IWHyryMH/EaX0pGXHn5AT1eorG5f0OjMLG3gUrcDLGwckBEbqRXOsKPjcqGJPy8thJZMLj3yHny7jINL/U4wZ3ni4fTCkLOwdYRn676o9/4WBIxcDitHN4Ss+RDxIWfg3qAnsrMyCpynFGjroLZt20qSLrT3O+0FLwcmMTBK2TqWVwmoFENFV/rxmdO0+JPz6zke9l41uV6jU7cx5MsancZPYW3c/VC1/6fwbNPPYBiNzEsDMqGfHkM6g2mm70Lr+zCzskHAm4vh3rwPgtd/hKyUFJ3zCI0/z8n4pFH8OvmS8qOtizizG3c2z4Rb4xdQf+JGVAhoxY9rh3Fv3gsN3v8Z1m5+uLlqAgs/A25Ne6HO6O8Qf/Mkri55AzEX9heISymIrWNLAT5HhG4u+uGlG43fbJJLi3iAtKh78Gj6Iir3Gs+dv+Q0skan8Xs07Y3MxCikPr7N3ubhedfSvq5GZv9lQT+f5PiSE+zn1dYVlmb+aWbB3t6vot676xF96QB7yN5Dekx4gWtTz5n2NcjRcTmgaDXxa9JCWDv76KYzJwcZcREIXjMVIb+wF0WLV1Fr2Gy41GnLDUud8avg6N8Y174bjfu7liCdhU2NfIiQ9dMQfmoLag2dCy/23WSn0+C7/LjIyCgFegaPHj0qScrBJAZGKVvH8oeB/fLc6cjqz8gzu3Bt+VheBUiLD0fcrVPwavEaksJuIiMpBs612yGW6fw6jWS6G0i8f4U/qEELh+Lx4Q2IvXo8//p5Lj9OuSyMTr6l9MTf/Rs1h34JGw+/PJ2uk3TsZDrfzqcaPJq8yPMaTlVBvXPMLKxQY/BMOPjWYXKu1rH8B7vU0cm32j06uhbeLV9DzWFfwtLOscDxxJDLCF73Me7vXgr/nhPh3rg7bv04BXd++ZK9gMK0wrJrM8OUyzw2rpWgMrfQOqY+Tj1JSoG2jg0LC5Mk5WASA6OUrWPVP7ra8ZtPpR5cpe5WVB+ndU6yUxORfC8IcTcuIDc7A4l3gpB8/xarDsQjnuno3MTbl5DAbsb0uMfIzlTPXaEbS3N9jdPWyYl+ekLWf8qM4kZU7TMZNfp9DBtPf25I9MNx6Lti1TsaJp8j5VXzncHcCp7sLV/77cXsAbyPayvHqwfiSdfhDxn7LxfqNFB+1J+JoTfwz5d9EHf9JKvqLUC1Vyfr5J3ynZOdi9SoR7jwVX9cWzGRlVDjeJ7yrsUeC/dGnRE4ciEqVGuGoCVv4eHeVVp5Jse+AxnzrY/YOrYU4D+45PhvTwptnfR586dPkBQazP3nZrzIGzITQi6wejYr3Zhb4vh7TViROgZZSfG4+8v8AudrO5046VMGCqSBuVxaMOriIdxYNQmJYdfRYPxqeLV9Beas9KYdTj2AjDxqmR4irmfG2crRBXXHLuPVg+CNM/Dwjx+QlZigDsfDSOfQp1xop0FyNBo54tQuXF06FsnhITzv/r3Hqks0WuE0Lk/HjKw9K8nVn7gavp1G4M62Obi9+UtWPb7LDZP+uTQ6WCmIrWNLAboBNG8YzY2T/8Yp3tl6+8O/1xiDx4xxslFEPnOycvDk2E5cWjgc1nauqDvmW1RsP4BXE+k4O5V9T9LoXPaA0Xdm4eCMKi9NQACrZjw59guuLB2H9JjoAtfWODkbeQ2lR+PUef8NF1nes5ISEPjWXFYtGgsLe+cCYW08KyNwxGxU6T0RYQfW4vLit5EWGVEgnLaTM9/6lOttS2g1raZNm0qSfNCPrn5iuMjIH+5tjKN9cmzdKxk8ZpSTCR61flr0XHp0OO7v+wm3NnwGj4adUG/sEjhVq8cMjTU/nsuMDLWzOPrXQd13FsHSyR03fvgIUf8cRC6rNulfT9vJ+pzppcWQy2B5Dzu4ieVnKmzcfVFvzBK4N+4IS1tHWDm5oVL3Eaj3zmLEhfyN699PRsxlWgWv6DyT46U9hZDLbn4aC6M0ytXWscfea8HbEIjAITPgXKMRMhOiuWwMFrb2SHxwHSGb50gagorBmq9I4zekA5q8vxougS24vzR5eGg9bm/T7NGsnTYNujqaxFihen34dRoEt8DncGvzTKSE30GzyZuQ9OAqbm9fiOQHt1jIoq+jxgzO1Rug6ZT1klx6UFva8UntJUmDod8mX2dmZg47r8rw6fAaXGux38rMDI9PbOVGJSNe+14p+jrkt7CxRofFyhg9W9TWscRXX32FqVOnSlLpYRIDQ8UzGkXYqlUrSSMPR95tAVWW2sBY2NnBrb7+zVc8cddPIzslSZJKRuMPVsE1sPQHHD48qG1gjMfMwgIudVoi/uZ5qLKz4OBfCykPDI8GLYoK1Rui2YdyGJgkHP+/p9/wz8E/ANnJ8erBhE8BbQPT8VvlGBjaYZV6dA0hl4ExSRVJMVvHMlOpqR9npaQh4uz+ErvMpKS8a5TUyQW9IQylpzhHbRQxQadZqS+Ly0n3QgqEMcbJWUUylB5jXdK9YKRFRxo8ZoyTtWqoR7nfOrawYcqliaalXy6XV3ouZQylpbSdXBhKS2k56qFXCrR1LM2oVhrlqg3m1vYF6l9eJiq1fx0O3qU/XDs2+G9EBZVgFCct0E7fk+bzX2Lr5oMqnYdIUumRxapId/d9L99vzr6/wNcmSYK80GNMjrYQMkSZboOhJTOvXbuG559/XtIIBILShHZXpd0dvb29JY0uZboNRilbxwoE/1XE1rECgeCZQVvHVqpUSZKUg0kMDDUw0ZoTAoFAHmiwqxLWxdbHJAYmMjJSEduWCAT/VZS6daxJGnnDw8P5ejA9evSQNMrlTuh9fPjJLLi7uXK5davmGDGkHy4GXcWqHzcgOzsH3bt2RJ9eL+DYyTP49bd9ULF/UydNQNUqlfk5ZY37Dx/hvcnT4enhzsei1q9XG+NGjUDw7VCs+H4t0tjN2b5tS/R/7WXs/fMvbNy8Ax7urkhNS8OIof3RtVN7KGJr4Kdg9U8bsW//4bzf++03B6NZk4bY8+ch7P3jEK9aDOrXB02Z7o8Dh7Fn3yH+HfXq0RW9XuxSaK+M0oiIiOBtMEOGGO7Nk6uRl7q2SkS/fv0kXz45OTkqZkElSdncvntP9dP6LZKkJjklRTXji/n8Mzc3V/XH/sOqoyfOqKJjYnnert8MVq3fvF0KXfa49yBMtXjpKklSk5qappryySyeR8rzkWOnVL/vO6jatnOPav+hozxMfEKiavrnc1XMAHG5LMJeGqpDh49LkpqLQddUc+YvUWVmZqnSMzJUn89ZpLp4+arq9SGjVCkpqaqsrCzVrK8Wqx6HR0hnKJ/ExETVuXPnJKkgc+bMkXyli8VnDMnWGMXWrVvBjIwkqaH1Pmk0b1loh4mLT+BvNFpi4vqNYNiyN1hsXDweP4lA29Yt2RvLDDVrVEUV/0qwZ/mhN/fZvy/C18cLlSv5SVcpWyQkJoEZD777H+WZ3spUOrlx8zZeYKU1kql0FlCzOm7cCsE/F4MQFRWNC5euwNPTA00a1S+zJRjKw/WbIYhk+QlhJTY/34o4evwUmjZuyH9jSwsLdGzXmpXY3JCUlAJmXBETG4dunTvAv3LZ+b2pJObnV3h6T5w4gXbtnn5axdNikvKfUraONRZ6kHq9SEXgrvwmI9LTM9jfgrVFVprB7TuhaNVC/tni/wbKZ08pzzWrV+M6qhoZqiBTFeL5Ds8hJiYWwwa9VmaqCYXRvGkjnm8ypg4O9lxHedfG0tIS77Dq00f/Nw7dunTEhp93IClZ/v3WjYVeHjQWTWmY5M5RzNaxRmJlZQl7ezvu6MaqUa0KnyxGby5qg/nuhw24cPkKf5vRjfj+hHd4T1lZxorl00HKM+Xfn5XGKjg54mHYY5b3XP5AHT95loe1sWG/J3ujU1vN9z9tBC0FUJah/FC+qYRNxrJD29Y4dPgEeyhTkZiUjBmz5uHKtZtgVSVucKnkSvcFqz5JV1A+tPD+pUuXJEk5mMTAKGXrWGOgG2zNhl/Qon1P7iZOmsaHWL8xtD8GjRiHNp1eQsWKnqgTWAvrNm3D7HlLeLhl36+RrlD2oGrfrj378/I8bOS7yMzM4g29kz+eidbP9+ZGpH3bVnxlNHq4qEpEb/KI8EhEREZJVyp70Mvvo+mz8/L+47qfeXVwYL8+6NV3OF4dMJL/9g2YMR0+pB96vDIEHbv3RZtWzeDJjGxZgZZpaNy4sSQpB5P0ItE6FDSS0NfXV9IIBAIlUaanClAf/MCBA7Fjxw4uT5o0CQ0aNMDJkye5PHToULRu3ZrvnURd2l27dsUrr7zCi3WXL1/mYUePHs3D7t+/n8uffvopl9etW8fl5cuXc3nu3Llc3r59O5eLiou67mgh5D59+hQZ14wZM7isH9e8efMMxkUNZkRRcQUFBaFhw4YYNWoUD6sf1/r167m8bNkyLuvHNXny5ELjonFHmrhoudLC4po+fTqXC4tr27ZtXNaPa9iwYXxtH2PiOnDgQJFxzZ8/36i4aD0hiqt79+5Gx7VhwwYuL126lMv6cU2ZMoXLx48f57KhuF5++WW+7SqtKd2oUSOTxTV8+HC+GWFRcb3zzjs8LHUvFxXXggULuEwdLERhcQUHB3NZSZSr2dQCgcAwZboEIxAIBIYQBkYgEDwzhIERCATPDGFgBALBM6PEjbz16tUrMFVAIBAoG1tb27KxZKZAIBAYi6giCQSCZ4YwMAKB4BkB/D+n3ZRcXaEk2AAAAABJRU5ErkJggg==&quot;&gt;" style="rounded=1;whiteSpace=wrap;html=1;labelBackgroundColor=#f2f2f2;strokeColor=#0e0101;strokeWidth=0;fontColor=#0d0d0d;gradientColor=#050505;container=0;" vertex="1" parent="38">
                    <mxGeometry x="15.274556956521735" y="93.2626086956522" width="140.92217391304348" height="68.47826086956522" as="geometry"/>
                </mxCell>
                <mxCell id="39" style="edgeStyle=none;html=1;exitX=1;exitY=0.5;exitDx=0;exitDy=0;entryX=0.025;entryY=0.461;entryDx=0;entryDy=0;entryPerimeter=0;strokeColor=#0f0f0f;fontColor=#0d0d0d;strokeWidth=3;" edge="1" parent="45" source="17" target="30">
                    <mxGeometry relative="1" as="geometry"/>
                </mxCell>
                <mxCell id="40" style="edgeStyle=none;html=1;exitX=1;exitY=0.5;exitDx=0;exitDy=0;entryX=0;entryY=0.5;entryDx=0;entryDy=0;strokeColor=#0f0f0f;strokeWidth=3;fontColor=#0d0d0d;" edge="1" parent="45" source="30" target="31">
                    <mxGeometry relative="1" as="geometry"/>
                </mxCell>
                <mxCell id="41" style="edgeStyle=none;html=1;exitX=1;exitY=0.5;exitDx=0;exitDy=0;entryX=0;entryY=0.5;entryDx=0;entryDy=0;strokeColor=#0f0f0f;strokeWidth=3;fontColor=#0d0d0d;" edge="1" parent="45" source="31" target="35">
                    <mxGeometry relative="1" as="geometry"/>
                </mxCell>
                <mxCell id="46" value="&lt;b&gt;&lt;font style=&quot;font-size: 14px;&quot;&gt;INGESTION&lt;/font&gt;&lt;/b&gt;" style="text;html=1;strokeColor=none;fillColor=none;align=center;verticalAlign=middle;whiteSpace=wrap;rounded=0;labelBackgroundColor=#f2f2f2;strokeWidth=0;fontColor=#0d0d0d;" vertex="1" parent="45">
                    <mxGeometry x="280" y="9.41" width="90" height="30" as="geometry"/>
                </mxCell>
                <mxCell id="47" value="&lt;b&gt;&lt;font style=&quot;font-size: 14px;&quot;&gt;SOURCE&lt;/font&gt;&lt;/b&gt;" style="text;html=1;strokeColor=none;fillColor=none;align=center;verticalAlign=middle;whiteSpace=wrap;rounded=0;labelBackgroundColor=#f2f2f2;strokeWidth=0;fontColor=#0d0d0d;" vertex="1" parent="45">
                    <mxGeometry x="60" y="9.41" width="90" height="30" as="geometry"/>
                </mxCell>
                <mxCell id="48" value="&lt;b&gt;&lt;font style=&quot;font-size: 14px;&quot;&gt;STORAGE&lt;/font&gt;&lt;/b&gt;" style="text;html=1;strokeColor=none;fillColor=none;align=center;verticalAlign=middle;whiteSpace=wrap;rounded=0;labelBackgroundColor=#f2f2f2;strokeWidth=0;fontColor=#0d0d0d;" vertex="1" parent="45">
                    <mxGeometry x="490.3" y="9.41" width="90" height="30" as="geometry"/>
                </mxCell>
                <mxCell id="49" value="&lt;b&gt;&lt;font style=&quot;font-size: 14px;&quot;&gt;SERVING&amp;nbsp;&lt;/font&gt;&lt;/b&gt;" style="text;html=1;strokeColor=none;fillColor=none;align=center;verticalAlign=middle;whiteSpace=wrap;rounded=0;labelBackgroundColor=#f2f2f2;strokeWidth=0;fontColor=#0d0d0d;" vertex="1" parent="45">
                    <mxGeometry x="710" y="9.41" width="90" height="30" as="geometry"/>
                </mxCell>
            </root>
        </mxGraphModel>
    </diagram>
</mxfile>